<?xml version="1.0" encoding="UTF-8" standalone="no"?>
<!-- Created with Inkscape (http://www.inkscape.org/) -->

<svg
   xmlns:dc="http://purl.org/dc/elements/1.1/"
   xmlns:cc="http://creativecommons.org/ns#"
   xmlns:rdf="http://www.w3.org/1999/02/22-rdf-syntax-ns#"
   xmlns:svg="http://www.w3.org/2000/svg"
   xmlns="http://www.w3.org/2000/svg"
   xmlns:sodipodi="http://sodipodi.sourceforge.net/DTD/sodipodi-0.dtd"
   xmlns:inkscape="http://www.inkscape.org/namespaces/inkscape"
   id="svg2"
   version="1.1"
   inkscape:version="0.48.4 r9939"
   width="1052.3622"
   height="744.09447"
   xml:space="preserve"
   sodipodi:docname="forward2.pdf"><metadata
     id="metadata8"><rdf:RDF><cc:Work
         rdf:about=""><dc:format>image/svg+xml</dc:format><dc:type
           rdf:resource="http://purl.org/dc/dcmitype/StillImage" /><dc:title></dc:title></cc:Work></rdf:RDF></metadata><defs
     id="defs6" /><sodipodi:namedview
     pagecolor="#ffffff"
     bordercolor="#666666"
     borderopacity="1"
     objecttolerance="10"
     gridtolerance="10"
     guidetolerance="10"
     inkscape:pageopacity="0"
     inkscape:pageshadow="2"
     inkscape:window-width="1877"
     inkscape:window-height="1056"
     id="namedview4"
     showgrid="false"
     inkscape:zoom="5.0746244"
     inkscape:cx="495.69546"
     inkscape:cy="488.89162"
     inkscape:window-x="43"
     inkscape:window-y="24"
     inkscape:window-maximized="1"
     inkscape:current-layer="g12" /><g
     id="g10"
     inkscape:groupmode="layer"
     inkscape:label="forward2"
     transform="matrix(1.25,0,0,-1.25,0,744.09447)"><g
       id="g12"><path
         d="m 622.957,344.635 c -53.828,-59.699 -145.859,-64.461 -205.559,-10.633 -3.488,3.145 -6.824,6.461 -9.992,9.93 l 107.453,98.164 108.098,-97.461 z"
         style="fill:#a4a5a4;fill-opacity:1;fill-rule:nonzero;stroke:none"
         id="path14" /><g
         id="g16"
         transform="matrix(-1,0.00114738,-2.23041e-4,0.999998,0,595.27557)"><path
           d="m -281.268,-180.889 c -39.059,70.256 -127.674,95.546 -197.931,56.485 -23.591,-13.117 -43.071,-32.532 -56.261,-56.084 l 126.985,-71.122 127.207,70.721 z"
           style="fill:none;stroke:#000000;stroke-opacity:1;stroke-width:0.979631;stroke-linecap:butt;stroke-linejoin:miter;stroke-miterlimit:4;stroke-dasharray:none"
           id="path18" /></g><path
         d="m 412.102,336.697 c -3.532,-1.839 -7.887,-0.468 -9.735,3.067 -1.844,3.531 -0.476,7.887 3.055,9.726 3.527,1.84 7.887,0.469 9.73,-3.066 1.813,-3.469 0.532,-7.746 -2.886,-9.641"
         style="fill:#000000;fill-opacity:1;fill-rule:nonzero;stroke:none"
         id="path20" /><g
         id="g22"
         transform="matrix(1,0,0,-1,0,595.27557)"><path
           d="m 408.348,91.109 0.09,160.243"
           style="fill:#008080;fill-opacity:1;fill-rule:nonzero;stroke:#000000;stroke-opacity:1;stroke-width:1.133858;stroke-linecap:butt;stroke-linejoin:miter;stroke-miterlimit:4;stroke-dasharray:none"
           id="path24" /></g><g
         id="g26"
         transform="matrix(5.64744e-4,-1,-1,-5.64744e-4,0,595.27557)"><path
           d="m 95.875,-408.297 2.267,-2.269 -7.935,2.269 7.936,2.27 -2.268,-2.27 z"
           style="fill:#000000;fill-opacity:1;fill-rule:evenodd;stroke:#000000;stroke-opacity:1;stroke-width:0.566929;stroke-linecap:butt;stroke-linejoin:miter;stroke-miterlimit:4;stroke-dasharray:none"
           id="path28" /></g><g
         id="g30"
         transform="matrix(1,0,0,-1,0,595.27557)"><path
           d="m 408.707,226.445 c 6.656,-0.011 13,2.836 17.414,7.821"
           style="fill:none;stroke:#000000;stroke-opacity:1;stroke-width:1.133858;stroke-linecap:butt;stroke-linejoin:miter;stroke-miterlimit:4;stroke-dasharray:none"
           id="path32" /></g><path
         inkscape:connector-curvature="0"
         d="m 427.03623,390.51163 c -0.031,-0.082 -0.086,-0.133 -0.156,-0.156 -0.074,-0.02 -0.141,-0.031 -0.203,-0.031 l -0.125,0 10.234,24.093 c 0.07,0.133 0.18,0.204 0.328,0.204 l 0.156,0 -10.234,-24.11 z"
         style="fill:none;stroke:#000000;stroke-width:1.12;stroke-linecap:butt;stroke-linejoin:miter;stroke-miterlimit:4;stroke-opacity:1;stroke-dasharray:none"
         id="path3959" /><path
         inkscape:connector-curvature="0"
         d="m 446.14323,413.80063 c 0.77,0 1.524,-0.117 2.266,-0.343 0.75,-0.219 1.41,-0.571 1.984,-1.047 0.57,-0.469 1.035,-1.075 1.391,-1.813 0.363,-0.73 0.547,-1.617 0.547,-2.656 0,-0.856 -0.141,-1.652 -0.422,-2.391 -0.274,-0.73 -0.637,-1.433 -1.094,-2.109 -0.461,-0.668 -0.992,-1.324 -1.594,-1.969 -0.594,-0.648 -1.226,-1.305 -1.89,-1.969 l -7.907,-8.078 c 0.227,0.02 0.489,0.035 0.782,0.047 0.289,0.02 0.617,0.031 0.984,0.031 l 11.578,0 c 0.113,0 0.172,-0.058 0.172,-0.171 l 0,-0.188 -14.016,0 0,0.125 c 0,0.063 0.016,0.113 0.047,0.156 0.031,0.051 0.055,0.086 0.078,0.11 l 8.063,8.187 c 0.656,0.664 1.273,1.317 1.859,1.953 0.594,0.645 1.11,1.297 1.547,1.953 0.438,0.664 0.781,1.348 1.031,2.047 0.258,0.707 0.391,1.461 0.391,2.266 0,0.969 -0.168,1.801 -0.5,2.5 -0.324,0.707 -0.762,1.285 -1.313,1.734 -0.54196,0.446 -1.16396,0.774 -1.85896,0.985 -0.687,0.218 -1.398,0.328 -2.125,0.328 -0.824,0 -1.59,-0.133 -2.297,-0.391 -0.699,-0.262 -1.312,-0.625 -1.844,-1.094 -0.531,-0.461 -0.976,-1.011 -1.328,-1.656 -0.343,-0.637 -0.578,-1.34 -0.703,-2.109 -0.031,-0.18 -0.117,-0.266 -0.25,-0.266 l -0.156,0 c 0.113,0.895 0.352,1.703 0.719,2.422 0.363,0.727 0.832,1.344 1.406,1.844 0.582,0.5 1.25,0.883 2,1.156 0.75,0.27 1.566,0.406 2.453,0.406 z"
         style="fill:none;stroke:#000000;stroke-width:1.12;stroke-linecap:butt;stroke-linejoin:miter;stroke-miterlimit:4;stroke-opacity:1;stroke-dasharray:none"
         id="path3961" /><text
         id="text3971"
         y="-390.90945"
         x="409.55057"
         style="font-size:32px;font-style:normal;font-variant:normal;font-weight:normal;font-stretch:normal;text-indent:0;text-align:start;text-decoration:none;line-height:normal;letter-spacing:normal;word-spacing:normal;text-transform:none;direction:ltr;block-progression:tb;writing-mode:lr-tb;text-anchor:start;baseline-shift:baseline;color:#000000;fill:#000000;fill-opacity:1;fill-rule:nonzero;stroke:none;stroke-width:1.25;marker:none;visibility:visible;display:inline;overflow:visible;enable-background:accumulate;font-family:Latin Modern Math;-inkscape-font-specification:LModernMath-Regular"
         xml:space="preserve"
         transform="scale(1,-1)"><tspan
           y="-390.90945"
           x="409.55057"
           id="tspan3973"
           sodipodi:role="line">θ</tspan></text>
</g></g></svg>