<?xml version="1.0" encoding="UTF-8" standalone="no"?>
<!-- Created with Inkscape (http://www.inkscape.org/) -->

<svg
   xmlns:dc="http://purl.org/dc/elements/1.1/"
   xmlns:cc="http://creativecommons.org/ns#"
   xmlns:rdf="http://www.w3.org/1999/02/22-rdf-syntax-ns#"
   xmlns:svg="http://www.w3.org/2000/svg"
   xmlns="http://www.w3.org/2000/svg"
   xmlns:sodipodi="http://sodipodi.sourceforge.net/DTD/sodipodi-0.dtd"
   xmlns:inkscape="http://www.inkscape.org/namespaces/inkscape"
   id="svg2"
   version="1.1"
   inkscape:version="0.48.4 r9939"
   width="422.24377"
   height="810.14237"
   xml:space="preserve"
   sodipodi:docname="lucas_et_al_figure1.pdf"><metadata
     id="metadata8"><rdf:RDF><cc:Work
         rdf:about=""><dc:format>image/svg+xml</dc:format><dc:type
           rdf:resource="http://purl.org/dc/dcmitype/StillImage" /><dc:title></dc:title></cc:Work></rdf:RDF></metadata><defs
     id="defs6" /><sodipodi:namedview
     pagecolor="#ffffff"
     bordercolor="#666666"
     borderopacity="1"
     objecttolerance="10"
     gridtolerance="10"
     guidetolerance="10"
     inkscape:pageopacity="0"
     inkscape:pageshadow="2"
     inkscape:window-width="1877"
     inkscape:window-height="1056"
     id="namedview4"
     showgrid="false"
     inkscape:zoom="2.3304545"
     inkscape:cx="68.02311"
     inkscape:cy="463.38272"
     inkscape:window-x="43"
     inkscape:window-y="24"
     inkscape:window-maximized="1"
     inkscape:current-layer="g12" /><g
     id="g10"
     inkscape:groupmode="layer"
     inkscape:label="lucas_et_al_figure1"
     transform="matrix(1.25,0,0,-1.25,0,810.14237)"><g
       id="g12"><path
         d="M 264.238,367.676 C 208.336,322.782 128.77,322.672 72.742,367.411 l 95.582,119.711 95.914,-119.446 z"
         style="fill:#b4b4b4;fill-opacity:1;fill-rule:nonzero;stroke:none"
         id="path14" /><path
         d="m 157.137,509.594 22.473,0 0,-22.473 -22.473,0 0,22.473 z"
         style="fill:#000000;fill-opacity:1;fill-rule:nonzero;stroke:none"
         id="path16" /><path
         d="m 106.44525,434.66191 0,20.094 0.125,0 c 0.188,0 0.281,-0.11 0.281,-0.328 l 0.063,-5.578 c 0.289,1 0.644,1.882 1.062,2.656 0.426,0.769 0.926,1.422 1.5,1.953 0.571,0.531 1.223,0.93 1.954,1.203 0.738,0.281 1.562,0.422 2.468,0.422 0.657,0 1.266,-0.07 1.828,-0.203 0.563,-0.137 1.102,-0.328 1.625,-0.578 l -0.078,-0.172 c -0.031,-0.043 -0.058,-0.078 -0.078,-0.11 -0.023,-0.031 -0.062,-0.046 -0.125,-0.046 -0.074,0 -0.187,0.031 -0.344,0.093 -0.156,0.071 -0.367,0.149 -0.625,0.235 -0.25,0.082 -0.558,0.156 -0.921,0.218 -0.356,0.071 -0.782,0.11 -1.282,0.11 -1.781,0 -3.23,-0.59 -4.343,-1.766 -1.106,-1.179 -1.981,-2.844 -2.625,-5 l 0,-13.203 -0.485,0 z"
         style="fill:#000000;fill-opacity:1;stroke:#000000;stroke-width:1.12;stroke-linecap:butt;stroke-linejoin:miter;stroke-miterlimit:4;stroke-opacity:1;stroke-dasharray:none"
         id="path18"
         inkscape:connector-curvature="0" /><path
         d="M 72.109,367.919 C 6.273,421.055 -4.02,517.505 49.117,583.34 c 53.141,65.836 149.586,76.129 215.422,22.989 65.836,-53.137 76.129,-149.586 22.992,-215.422 -7.031,-8.711 -14.996,-16.621 -23.75,-23.598"
         style="fill:none;stroke:#000000;stroke-opacity:1;stroke-width:1.04;stroke-linecap:butt;stroke-linejoin:miter;stroke-miterlimit:4;stroke-dasharray:4.16,4.16;stroke-dashoffset:0"
         id="path20" /><path
         d="M 192.504,457.008 C 178.41,445.692 158.352,445.665 144.227,456.942"
         style="fill:none;stroke:#000000;stroke-opacity:1;stroke-width:2.4;stroke-linecap:butt;stroke-linejoin:miter;stroke-miterlimit:4;stroke-dasharray:none"
         id="path22" /><g
         id="g24"
         transform="matrix(-1,0.00341159,0.00341159,1,0,648.11389)"><path
           d="m -38.584,-409.306 c -43.491,72.574 -137.578,96.145 -210.148,52.655 -20.12,-12.057 -37.199,-28.573 -49.927,-48.275 l 128.674,-83.127 131.401,78.747 z"
           style="fill:#ffffff;fill-opacity:1;fill-rule:nonzero;stroke:#000000;stroke-opacity:1;stroke-width:1.599991;stroke-linecap:butt;stroke-linejoin:miter;stroke-miterlimit:4;stroke-dasharray:none"
           id="path26" /></g><g
         id="g28"
         transform="matrix(-1,0.00341159,0.00341159,1,0,648.11389)"><path
           d="m -136.859,-468.197 c -10.965,18.295 -34.683,24.235 -52.978,13.27 -5.077,-3.041 -9.388,-7.21 -12.596,-12.183"
           style="fill:none;stroke:#000000;stroke-opacity:1;stroke-width:2.399986;stroke-linecap:butt;stroke-linejoin:miter;stroke-miterlimit:4;stroke-dasharray:none"
           id="path30" /></g><path
         d="m 162.914,155.563 c -2.266,3.176 -1.531,7.586 1.645,9.856 3.175,2.265 7.586,1.527 9.855,-1.649 2.266,-3.172 1.527,-7.586 -1.648,-9.851 -3.153,-2.25 -7.532,-1.543 -9.813,1.589"
         style="fill:#000000;fill-opacity:1;fill-rule:nonzero;stroke:none"
         id="path32" /><text
         transform="matrix(1,0,0,-1,176.30983,415.27929)"
         id="text34"><tspan
           style="fill:#000000;fill-opacity:1;fill-rule:nonzero;stroke:none;font-family:Latin Modern Math;font-variant:normal;font-weight:normal;font-size:41.243858;writing-mode:lr;-inkscape-font-specification:LModernMath-Regular"
           x="0"
           y="0"
           id="tspan36">θ</tspan></text>
<path
         d="m 70.055,375.204 89.3,109.367"
         style="fill:none;stroke:#000000;stroke-opacity:1;stroke-width:1.728328;stroke-linecap:butt;stroke-linejoin:miter;stroke-miterlimit:7.8;stroke-dasharray:none"
         id="path38" /><g
         id="g40"
         transform="matrix(0.816537,1,1,-0.816537,0,648.11389)"><path
           d="m -124.065,175.729 2.677,-2.677 -9.371,2.679 9.369,2.677 -2.675,-2.679 z"
           style="fill:#000000;fill-opacity:1;fill-rule:evenodd;stroke:#000000;stroke-opacity:1;stroke-width:0.669365;stroke-linecap:butt;stroke-linejoin:miter;stroke-miterlimit:4;stroke-dasharray:none"
           id="path42" /></g><g
         id="g44"
         transform="matrix(-0.816537,-1,-1,0.816537,0,648.11389)"><path
           d="m 25.408,-175.731 2.678,-2.675 -9.37,2.675 9.37,2.677 -2.678,-2.677 z"
           style="fill:#000000;fill-opacity:1;fill-rule:evenodd;stroke:#000000;stroke-opacity:1;stroke-width:0.669365;stroke-linecap:butt;stroke-linejoin:miter;stroke-miterlimit:4;stroke-dasharray:none"
           id="path46" /></g><g
         id="g48"
         transform="matrix(-1,0.00341159,0.00341159,1,0,648.11389)"><path
           d="m -300.513,-407.869 c -44.285,-72.088 -21.743,-166.426 50.344,-210.711 72.091,-44.285 166.43,-21.744 210.715,50.344 30.002,48.839 30.228,110.342 0.59,159.4"
           style="fill:none;stroke:#000000;stroke-opacity:1;stroke-width:1.039994;stroke-linecap:butt;stroke-linejoin:miter;stroke-miterlimit:4;stroke-dasharray:4.159976,4.159976;stroke-dashoffset:0"
           id="path50" /></g><text
         transform="matrix(1,0,0,-1,169.42979,208.75302)"
         id="text52"><tspan
           style="fill:#000000;fill-opacity:1;fill-rule:nonzero;stroke:none;font-family:Latin Modern Math;font-variant:normal;font-weight:normal;font-size:32;writing-mode:lr;-inkscape-font-specification:LModernMath-Regular"
           x="0"
           y="0"
           id="tspan54">α</tspan></text>
<text
         xml:space="preserve"
         style="font-size:40px;font-style:normal;font-variant:normal;font-weight:normal;font-stretch:normal;line-height:125%;letter-spacing:0px;word-spacing:0px;fill:#000000;fill-opacity:1;stroke:none;font-family:Lato;-inkscape-font-specification:Lato"
         x="133.87946"
         y="254.02769"
         id="text3031"
         sodipodi:linespacing="125%"
         transform="matrix(0.8,0,0,-0.8,0,648.1139)"><tspan
           sodipodi:role="line"
           id="tspan3033"></tspan></text>
<text
         xml:space="preserve"
         style="font-size:40px;font-style:normal;font-variant:normal;font-weight:normal;font-stretch:normal;line-height:125%;letter-spacing:0px;word-spacing:0px;fill:#000000;fill-opacity:1;stroke:none;font-family:Lato;-inkscape-font-specification:Lato"
         x="134.73767"
         y="252.7404"
         id="text3803"
         sodipodi:linespacing="125%"
         transform="matrix(0.8,0,0,-0.8,0,648.1139)"><tspan
           sodipodi:role="line"
           id="tspan3805"></tspan></text>
<text
         xml:space="preserve"
         style="font-size:40px;font-style:normal;font-variant:normal;font-weight:normal;font-stretch:normal;line-height:125%;letter-spacing:0px;word-spacing:0px;fill:#000000;fill-opacity:1;stroke:none;font-family:Lato;-inkscape-font-specification:Lato"
         x="28.320656"
         y="367.31033"
         id="text3807"
         sodipodi:linespacing="125%"
         transform="matrix(0.8,0,0,-0.8,0,648.1139)"><tspan
           sodipodi:role="line"
           id="tspan3809"
           x="28.320656"
           y="367.31033" /></text>
</g></g></svg>