<?xml version="1.0" encoding="UTF-8" standalone="no"?>
<!-- Created with Inkscape (http://www.inkscape.org/) -->

<svg
   xmlns:dc="http://purl.org/dc/elements/1.1/"
   xmlns:cc="http://creativecommons.org/ns#"
   xmlns:rdf="http://www.w3.org/1999/02/22-rdf-syntax-ns#"
   xmlns:svg="http://www.w3.org/2000/svg"
   xmlns="http://www.w3.org/2000/svg"
   xmlns:sodipodi="http://sodipodi.sourceforge.net/DTD/sodipodi-0.dtd"
   xmlns:inkscape="http://www.inkscape.org/namespaces/inkscape"
   id="svg2"
   version="1.1"
   inkscape:version="0.48.4 r9939"
   width="1052.3622"
   height="744.09447"
   xml:space="preserve"
   sodipodi:docname="ne2.pdf"><metadata
     id="metadata8"><rdf:RDF><cc:Work
         rdf:about=""><dc:format>image/svg+xml</dc:format><dc:type
           rdf:resource="http://purl.org/dc/dcmitype/StillImage" /><dc:title></dc:title></cc:Work></rdf:RDF></metadata><defs
     id="defs6" /><sodipodi:namedview
     pagecolor="#ffffff"
     bordercolor="#666666"
     borderopacity="1"
     objecttolerance="10"
     gridtolerance="10"
     guidetolerance="10"
     inkscape:pageopacity="0"
     inkscape:pageshadow="2"
     inkscape:window-width="1877"
     inkscape:window-height="1056"
     id="namedview4"
     showgrid="false"
     inkscape:zoom="0.84931118"
     inkscape:cx="354.6658"
     inkscape:cy="369.30413"
     inkscape:window-x="43"
     inkscape:window-y="24"
     inkscape:window-maximized="1"
     inkscape:current-layer="g12" /><g
     id="g10"
     inkscape:groupmode="layer"
     inkscape:label="ne2"
     transform="matrix(1.25,0,0,-1.25,0,744.09447)"><g
       id="g12"><path
         d="m 413.637,410.819 c 33.718,-72.969 1.898,-159.457 -71.071,-193.176 -72.968,-33.719 -159.453,-1.899 -193.171,71.07 -17.907,38.746 -17.899,83.399 0.015,122.141 l 132.106,-61.09 132.121,61.055 z"
         style="fill:#a4a5a4;fill-opacity:1;fill-rule:nonzero;stroke:none"
         id="path14" /><g
         id="g16"
         transform="matrix(-0.482773,-1,-0.997895,0.487088,0,595.27557)"><path
           d="m 88.131,-657.819 c 45.567,56.249 36.902,138.786 -19.349,184.351 -56.248,45.563 -138.785,36.899 -184.348,-19.351 -38.957,-48.095 -38.962,-116.889 -0.011,-164.987 l 101.861,82.486 101.847,-82.499 z"
           style="fill:none;stroke:#000000;stroke-opacity:1;stroke-width:0.88221;stroke-linecap:butt;stroke-linejoin:miter;stroke-miterlimit:4;stroke-dasharray:none"
           id="path18" /></g><path
         d="m 588.121,329.127 c 0.121,-3.988 -3.004,-7.312 -6.976,-7.426 -3.977,-0.109 -7.297,3.032 -7.418,7.02 -0.122,3.988 3,7.312 6.976,7.426 3.902,0.109 7.188,-2.922 7.41,-6.836"
         style="fill:#000000;fill-opacity:1;fill-rule:nonzero;stroke:none"
         id="path20" /><g
         id="g38"
         transform="matrix(1,0,0,-1,0,595.27557)"><path
           d="m 281.535,245.789 0,144.902"
           style="fill:none;stroke:#000000;stroke-opacity:1;stroke-width:1.133858;stroke-linecap:square;stroke-linejoin:miter;stroke-miterlimit:4;stroke-dasharray:none"
           id="path40" /></g><g
         id="g42"
         transform="matrix(1,0,0,-1,0,595.27557)"><path
           d="m 334.766,155.48 3.605,-7.378"
           style="fill:#008080;fill-opacity:1;fill-rule:nonzero;stroke:#000000;stroke-opacity:1;stroke-width:0.850394;stroke-linecap:butt;stroke-linejoin:miter;stroke-miterlimit:4;stroke-dasharray:none"
           id="path44" /></g><g
         id="g46"
         transform="matrix(1,0,0,-1,0,595.27557)"><path
           d="m 335.031,155.148 -7.375,-3.609"
           style="fill:#008080;fill-opacity:1;fill-rule:nonzero;stroke:#000000;stroke-opacity:1;stroke-width:0.850394;stroke-linecap:butt;stroke-linejoin:miter;stroke-miterlimit:4;stroke-dasharray:none"
           id="path48" /></g><g
         id="g50"
         transform="matrix(1,0,0,-1,0,595.27557)"><path
           d="m 289.559,229.312 c 3.625,1.938 6.5,5.032 8.164,8.793"
           style="fill:none;stroke:#000000;stroke-opacity:1;stroke-width:1.417323;stroke-linecap:butt;stroke-linejoin:miter;stroke-miterlimit:4;stroke-dasharray:none"
           id="path52" /></g><g
         id="g54"
         transform="matrix(1,0,0,-1,0,595.27557)"><path
           d="m 217.68,376.34 113,-231.918"
           style="fill:#008080;fill-opacity:1;fill-rule:nonzero;stroke:#ff0000;stroke-opacity:1;stroke-width:1.133494;stroke-linecap:butt;stroke-linejoin:miter;stroke-miterlimit:4;stroke-dasharray:none"
           id="path56" /></g><g
         id="g58"
         transform="matrix(1,0,0,-1,0,595.27557)"><path
           d="M 302.367,130.496 581.832,266.789"
           style="fill:#008080;fill-opacity:1;fill-rule:nonzero;stroke:#000000;stroke-opacity:1;stroke-width:1.133858;stroke-linecap:butt;stroke-linejoin:miter;stroke-miterlimit:4;stroke-dasharray:none"
           id="path60" /></g><g
         id="g62"
         transform="matrix(1,-0.487692,-0.487692,-1,0,595.27557)"><path
           d="m 299.761,-13.707 2.038,-2.036 -7.135,2.038 7.134,2.036 -2.037,-2.038 z"
           style="fill:#000000;fill-opacity:1;fill-rule:evenodd;stroke:#000000;stroke-opacity:1;stroke-width:0.509561;stroke-linecap:butt;stroke-linejoin:miter;stroke-miterlimit:4;stroke-dasharray:none"
           id="path64" /></g><g
         id="g66"
         transform="matrix(1,0,0,-1,0,595.27557)"><path
           d="m 297.551,187.418 c 0,0 23.121,15.84 13.008,28.25 -8.786,10.781 -12.954,15.812 -12.954,15.812"
           style="fill:none;stroke:#000000;stroke-opacity:1;stroke-width:0.850394;stroke-linecap:butt;stroke-linejoin:miter;stroke-miterlimit:4;stroke-dasharray:none"
           id="path68" /></g><g
         id="g70"
         transform="matrix(0.827762,1,1,-0.827762,0,595.27557)"><path
           d="m 15.374,290.305 2.619,-2.621 -9.171,2.619 9.173,2.622 -2.621,-2.62 z"
           style="fill:#000000;fill-opacity:1;fill-rule:evenodd;stroke:#000000;stroke-opacity:1;stroke-width:0.655082;stroke-linecap:butt;stroke-linejoin:miter;stroke-miterlimit:4;stroke-dasharray:none"
           id="path72" /></g><path
         inkscape:connector-curvature="0"
         d="m 267.48942,406.23437 c -0.031,-0.082 -0.086,-0.133 -0.156,-0.156 -0.074,-0.02 -0.141,-0.031 -0.203,-0.031 l -0.125,0 10.234,24.093 c 0.07,0.133 0.18,0.204 0.328,0.204 l 0.156,0 -10.234,-24.11 z"
         style="fill:none;stroke:#000000;stroke-width:1.12;stroke-linecap:butt;stroke-linejoin:miter;stroke-miterlimit:4;stroke-opacity:1;stroke-dasharray:none"
         id="path3959" /><path
         inkscape:connector-curvature="0"
         d="m 286.59642,429.52337 c 0.77,0 1.524,-0.117 2.266,-0.343 0.75,-0.219 1.41,-0.571 1.984,-1.047 0.57,-0.469 1.035,-1.075 1.391,-1.813 0.363,-0.73 0.547,-1.617 0.547,-2.656 0,-0.856 -0.141,-1.652 -0.422,-2.391 -0.274,-0.73 -0.637,-1.433 -1.094,-2.109 -0.461,-0.668 -0.992,-1.324 -1.594,-1.969 -0.594,-0.648 -1.226,-1.305 -1.89,-1.969 l -7.907,-8.078 c 0.227,0.02 0.489,0.035 0.782,0.047 0.289,0.02 0.617,0.031 0.984,0.031 l 11.578,0 c 0.113,0 0.172,-0.058 0.172,-0.171 l 0,-0.188 -14.016,0 0,0.125 c 0,0.063 0.016,0.113 0.047,0.156 0.031,0.051 0.055,0.086 0.078,0.11 l 8.063,8.187 c 0.656,0.664 1.273,1.317 1.859,1.953 0.594,0.645 1.11,1.297 1.547,1.953 0.438,0.664 0.781,1.348 1.031,2.047 0.258,0.707 0.391,1.461 0.391,2.266 0,0.969 -0.168,1.801 -0.5,2.5 -0.324,0.707 -0.762,1.285 -1.313,1.734 -0.54196,0.446 -1.16396,0.774 -1.85896,0.985 -0.687,0.218 -1.398,0.328 -2.125,0.328 -0.824,0 -1.59,-0.133 -2.297,-0.391 -0.699,-0.262 -1.312,-0.625 -1.844,-1.094 -0.531,-0.461 -0.976,-1.011 -1.328,-1.656 -0.343,-0.637 -0.578,-1.34 -0.703,-2.109 -0.031,-0.18 -0.117,-0.266 -0.25,-0.266 l -0.156,0 c 0.113,0.895 0.352,1.703 0.719,2.422 0.363,0.727 0.832,1.344 1.406,1.844 0.582,0.5 1.25,0.883 2,1.156 0.75,0.27 1.566,0.406 2.453,0.406 z"
         style="fill:none;stroke:#000000;stroke-width:1.12;stroke-linecap:butt;stroke-linejoin:miter;stroke-miterlimit:4;stroke-opacity:1;stroke-dasharray:none"
         id="path3961" /><path
         id="path3963"
         style="fill:none;stroke:#000000;stroke-width:1.12;stroke-linecap:butt;stroke-linejoin:miter;stroke-miterlimit:4;stroke-opacity:1;stroke-dasharray:none"
         d="m 221.66334,416.70162 -5.641,7.719 0.359,0 c 0.082,0 0.145,-0.032 0.188,-0.094 0.039,-0.063 0.07,-0.11 0.094,-0.141 l 5.265,-7.281 c 0.02,0.039 0.039,0.078 0.063,0.109 0.019,0.039 0.047,0.086 0.078,0.141 l 5.125,7.031 c 0.031,0.051 0.066,0.102 0.109,0.156 0.051,0.051 0.11,0.079 0.172,0.079 l 0.359,0 -5.64,-7.672 5.859,-8.016 -0.344,0 c -0.085,0 -0.152,0.023 -0.203,0.078 -0.043,0.063 -0.074,0.11 -0.093,0.141 l -5.5,7.594 c -0.012,-0.055 -0.055,-0.133 -0.125,-0.235 l -5.344,-7.359 c -0.043,-0.055 -0.086,-0.106 -0.125,-0.156 -0.043,-0.043 -0.102,-0.063 -0.172,-0.063 l -0.344,0 5.86,7.969 z"
         inkscape:connector-curvature="0" /><path
         id="path3965"
         style="fill:none;stroke:#000000;stroke-width:1.12;stroke-linecap:butt;stroke-linejoin:miter;stroke-miterlimit:4;stroke-opacity:1;stroke-dasharray:none"
         d="m 231.82334,402.37762 2.718,0 0,10.375 c 0,0.07 0,0.144 0,0.218 0.008,0.082 0.02,0.16 0.032,0.235 l -2.891,-2.61 c -0.031,-0.031 -0.058,-0.047 -0.078,-0.047 -0.031,0 -0.063,0.016 -0.094,0.047 l -0.047,0.063 3.157,2.828 0.109,0 0,-11.109 2.656,0 0,-0.157 -5.562,0 0,0.157 z"
         inkscape:connector-curvature="0" /><text
         xml:space="preserve"
         style="font-size:32px;font-style:normal;font-variant:normal;font-weight:normal;font-stretch:normal;text-indent:0;text-align:start;text-decoration:none;line-height:normal;letter-spacing:normal;word-spacing:normal;text-transform:none;direction:ltr;block-progression:tb;writing-mode:lr-tb;text-anchor:start;baseline-shift:baseline;color:#000000;fill:#000000;fill-opacity:1;fill-rule:nonzero;stroke:#000000;stroke-width:1.12;stroke-miterlimit:4;stroke-opacity:1;stroke-dasharray:none;marker:none;visibility:visible;display:inline;overflow:visible;enable-background:accumulate;font-family:Lato Hairline;-inkscape-font-specification:Lato-Hairline"
         x="239.66946"
         y="-406.56677"
         id="text3967"
         transform="scale(1,-1)"><tspan
           sodipodi:role="line"
           id="tspan3969"
           x="239.66946"
           y="-406.56677"
           style="stroke-width:1.12">-</tspan></text>
<text
         id="text3971"
         y="-406.6322"
         x="250.00375"
         style="font-size:32px;font-style:normal;font-variant:normal;font-weight:normal;font-stretch:normal;text-indent:0;text-align:start;text-decoration:none;line-height:normal;letter-spacing:normal;word-spacing:normal;text-transform:none;direction:ltr;block-progression:tb;writing-mode:lr-tb;text-anchor:start;baseline-shift:baseline;color:#000000;fill:#000000;fill-opacity:1;fill-rule:nonzero;stroke:none;stroke-width:1.25;marker:none;visibility:visible;display:inline;overflow:visible;enable-background:accumulate;font-family:Latin Modern Math;-inkscape-font-specification:LModernMath-Regular"
         xml:space="preserve"
         transform="scale(1,-1)"><tspan
           y="-406.6322"
           x="250.00375"
           id="tspan3973"
           sodipodi:role="line">θ</tspan></text>
</g></g></svg>