<?xml version="1.0" encoding="UTF-8" standalone="no"?>
<!-- Created with Inkscape (http://www.inkscape.org/) -->

<svg
   xmlns:dc="http://purl.org/dc/elements/1.1/"
   xmlns:cc="http://creativecommons.org/ns#"
   xmlns:rdf="http://www.w3.org/1999/02/22-rdf-syntax-ns#"
   xmlns:svg="http://www.w3.org/2000/svg"
   xmlns="http://www.w3.org/2000/svg"
   xmlns:sodipodi="http://sodipodi.sourceforge.net/DTD/sodipodi-0.dtd"
   xmlns:inkscape="http://www.inkscape.org/namespaces/inkscape"
   id="svg2"
   version="1.1"
   inkscape:version="0.48.4 r9939"
   width="1052.3622"
   height="744.09447"
   xml:space="preserve"
   sodipodi:docname="ne34.pdf"><metadata
     id="metadata8"><rdf:RDF><cc:Work
         rdf:about=""><dc:format>image/svg+xml</dc:format><dc:type
           rdf:resource="http://purl.org/dc/dcmitype/StillImage" /><dc:title></dc:title></cc:Work></rdf:RDF></metadata><defs
     id="defs6" /><sodipodi:namedview
     pagecolor="#ffffff"
     bordercolor="#666666"
     borderopacity="1"
     objecttolerance="10"
     gridtolerance="10"
     guidetolerance="10"
     inkscape:pageopacity="0"
     inkscape:pageshadow="2"
     inkscape:window-width="1877"
     inkscape:window-height="1056"
     id="namedview4"
     showgrid="false"
     inkscape:zoom="2.4250206"
     inkscape:cx="604.86348"
     inkscape:cy="341.4415"
     inkscape:window-x="43"
     inkscape:window-y="24"
     inkscape:window-maximized="1"
     inkscape:current-layer="g12" /><g
     id="g10"
     inkscape:groupmode="layer"
     inkscape:label="ne34"
     transform="matrix(1.25,0,0,-1.25,0,744.09447)"><g
       id="g12"><path
         d="m 666.438,343.615 c 33.714,-72.964 1.898,-159.453 -71.071,-193.171 -72.969,-33.719 -159.457,-1.899 -193.172,71.07 -17.906,38.746 -17.898,83.398 0.016,122.14 l 132.105,-61.089 132.122,61.05 z"
         style="fill:#a4a5a4;fill-opacity:1;fill-rule:nonzero;stroke:none"
         id="path14" /><g
         id="g16"
         transform="matrix(0.827197,-0.996442,-1,-0.822875,0,595.27557)"><path
           d="m 435.822,-186.353 c 39.068,48.231 31.642,119.002 -16.591,158.069 C 371,10.785 300.229,3.356 261.161,-44.875 227.758,-86.115 227.752,-145.1 261.153,-186.343 l 87.338,70.727 87.331,-70.737 z"
           style="fill:none;stroke:#000000;stroke-opacity:1;stroke-width:0.756449;stroke-linecap:butt;stroke-linejoin:miter;stroke-miterlimit:4;stroke-dasharray:none"
           id="path18" /></g><path
         d="m 406.621,350.033 c 3.68,-1.543 5.406,-5.765 3.859,-9.425 -1.55,-3.664 -5.789,-5.379 -9.464,-3.836 -3.68,1.547 -5.407,5.765 -3.86,9.429 1.52,3.594 5.645,5.328 9.293,3.903"
         style="fill:#000000;fill-opacity:1;fill-rule:nonzero;stroke:none"
         id="path20" /><g
         id="g22"
         transform="matrix(1,0,0,-1,0,595.27557)"><path
           d="m 534.336,312.988 0,144.731"
           style="fill:none;stroke:#000000;stroke-opacity:1;stroke-width:1.132494;stroke-linecap:square;stroke-linejoin:miter;stroke-miterlimit:4;stroke-dasharray:none"
           id="path24" /></g><g
         id="g26"
         transform="matrix(1,0,0,-1,0,595.27557)"><path
           d="M 463.102,213.582 457.91,207.27"
           style="fill:#008080;fill-opacity:1;fill-rule:nonzero;stroke:#000000;stroke-opacity:1;stroke-width:0.846325;stroke-linecap:butt;stroke-linejoin:miter;stroke-miterlimit:4;stroke-dasharray:none"
           id="path28" /></g><g
         id="g38"
         transform="matrix(1,0,0,-1,0,595.27557)"><path
           d="m 431.582,300.461 c 0,0 -1.656,-10.039 -6.98,-15.969 -3.118,-3.472 -7.125,-7.133 -7.125,-7.133"
           style="fill:none;stroke:#000000;stroke-opacity:1;stroke-width:0.79937;stroke-linecap:butt;stroke-linejoin:miter;stroke-miterlimit:4;stroke-dasharray:none"
           id="path40" /></g><g
         id="g42"
         transform="matrix(1,-0.913033,-0.913033,-1,0,595.27557)"><path
           d="m 371.689,-56.614 2.359,-2.361 -8.262,2.36 8.264,2.361 -2.361,-2.36 z"
           style="fill:#000000;fill-opacity:1;fill-rule:evenodd;stroke:#000000;stroke-opacity:1;stroke-width:0.590326;stroke-linecap:butt;stroke-linejoin:miter;stroke-miterlimit:4;stroke-dasharray:none"
           id="path44" /></g><g
         id="g46"
         transform="matrix(1,0,0,-1,0,595.27557)"><path
           d="m 462.91,213.203 -6.316,5.188"
           style="fill:#008080;fill-opacity:1;fill-rule:nonzero;stroke:#000000;stroke-opacity:1;stroke-width:0.846325;stroke-linecap:butt;stroke-linejoin:miter;stroke-miterlimit:4;stroke-dasharray:none"
           id="path48" /></g><g
         id="g50"
         transform="matrix(1,0,0,-1,0,595.27557)"><path
           d="M 247.074,381.461 542.125,138.504"
           style="fill:#008080;fill-opacity:1;fill-rule:nonzero;stroke:#000000;stroke-opacity:1;stroke-width:1.133858;stroke-linecap:butt;stroke-linejoin:miter;stroke-miterlimit:4;stroke-dasharray:none"
           id="path52" /></g><g
         id="g54"
         transform="matrix(1,0.823448,0.823448,-1,0,595.27557)"><path
           d="m -36.448,348.565 1.75,-1.75 -6.128,1.75 6.129,1.75 -1.751,-1.75 z"
           style="fill:#000000;fill-opacity:1;fill-rule:evenodd;stroke:#000000;stroke-opacity:1;stroke-width:0.437647;stroke-linecap:butt;stroke-linejoin:miter;stroke-miterlimit:4;stroke-dasharray:none"
           id="path56" /></g><g
         id="g58"
         transform="matrix(1,0,0,-1,0,595.27557)"><path
           d="m 425.375,262.332 c -5.836,12.445 -20.656,17.805 -33.105,11.965 -2.926,-1.371 -5.555,-3.301 -7.747,-5.676"
           style="fill:none;stroke:#000000;stroke-opacity:1;stroke-width:1.417323;stroke-linecap:butt;stroke-linejoin:miter;stroke-miterlimit:4;stroke-dasharray:none"
           id="path60" /></g><g
         id="g62"
         transform="matrix(1,0,0,-1,0,595.27557)"><path
           d="M 626.949,424.961 451.551,212.117"
           style="fill:#008080;fill-opacity:1;fill-rule:nonzero;stroke:#ff0000;stroke-opacity:1;stroke-width:1.417323;stroke-linecap:butt;stroke-linejoin:miter;stroke-miterlimit:4;stroke-dasharray:none"
           id="path64" /></g><path
         id="path3893"
         style="fill:none;stroke:#000000;stroke-width:1.12;stroke-linecap:butt;stroke-linejoin:miter;stroke-miterlimit:4;stroke-opacity:1;stroke-dasharray:none"
         d="m 450.33062,272.34122 c -0.031,-0.082 -0.086,-0.133 -0.156,-0.156 -0.074,-0.02 -0.141,-0.031 -0.203,-0.031 l -0.125,0 10.234,24.093 c 0.07,0.133 0.18,0.204 0.328,0.204 l 0.156,0 -10.234,-24.11 z"
         inkscape:connector-curvature="0" /><path
         id="path3895"
         style="fill:none;stroke:#000000;stroke-width:1.12;stroke-linecap:butt;stroke-linejoin:miter;stroke-miterlimit:4;stroke-opacity:1;stroke-dasharray:none"
         d="m 469.43762,295.63022 c 0.77,0 1.524,-0.117 2.266,-0.343 0.75,-0.219 1.41,-0.571 1.984,-1.047 0.57,-0.469 1.035,-1.075 1.391,-1.813 0.363,-0.73 0.547,-1.617 0.547,-2.656 0,-0.856 -0.141,-1.652 -0.422,-2.391 -0.274,-0.73 -0.637,-1.433 -1.094,-2.109 -0.461,-0.668 -0.992,-1.324 -1.594,-1.969 -0.594,-0.648 -1.226,-1.305 -1.89,-1.969 l -7.907,-8.078 c 0.227,0.02 0.489,0.035 0.782,0.047 0.289,0.02 0.617,0.031 0.984,0.031 l 11.578,0 c 0.113,0 0.172,-0.058 0.172,-0.171 l 0,-0.188 -14.016,0 0,0.125 c 0,0.063 0.016,0.113 0.047,0.156 0.031,0.051 0.055,0.086 0.078,0.11 l 8.063,8.187 c 0.656,0.664 1.273,1.317 1.859,1.953 0.594,0.645 1.11,1.297 1.547,1.953 0.438,0.664 0.781,1.348 1.031,2.047 0.258,0.707 0.391,1.461 0.391,2.266 0,0.969 -0.168,1.801 -0.5,2.5 -0.324,0.707 -0.762,1.285 -1.313,1.734 -0.54196,0.446 -1.16396,0.774 -1.85896,0.985 -0.687,0.218 -1.398,0.328 -2.125,0.328 -0.824,0 -1.59,-0.133 -2.297,-0.391 -0.699,-0.262 -1.312,-0.625 -1.844,-1.094 -0.531,-0.461 -0.976,-1.011 -1.328,-1.656 -0.343,-0.637 -0.578,-1.34 -0.703,-2.109 -0.031,-0.18 -0.117,-0.266 -0.25,-0.266 l -0.156,0 c 0.113,0.895 0.352,1.703 0.719,2.422 0.363,0.727 0.832,1.344 1.406,1.844 0.582,0.5 1.25,0.883 2,1.156 0.75,0.27 1.566,0.406 2.453,0.406 z"
         inkscape:connector-curvature="0" /><path
         inkscape:connector-curvature="0"
         d="m 404.50454,282.80847 -5.641,7.719 0.359,0 c 0.082,0 0.145,-0.032 0.188,-0.094 0.039,-0.063 0.07,-0.11 0.094,-0.141 l 5.265,-7.281 c 0.02,0.039 0.039,0.078 0.063,0.109 0.019,0.039 0.047,0.086 0.078,0.141 l 5.125,7.031 c 0.031,0.051 0.066,0.102 0.109,0.156 0.051,0.051 0.11,0.079 0.172,0.079 l 0.359,0 -5.64,-7.672 5.859,-8.016 -0.344,0 c -0.085,0 -0.152,0.023 -0.203,0.078 -0.043,0.063 -0.074,0.11 -0.093,0.141 l -5.5,7.594 c -0.012,-0.055 -0.055,-0.133 -0.125,-0.235 l -5.344,-7.359 c -0.043,-0.055 -0.086,-0.106 -0.125,-0.156 -0.043,-0.043 -0.102,-0.063 -0.172,-0.063 l -0.344,0 5.86,7.969 z"
         style="fill:none;stroke:#000000;stroke-width:1.12;stroke-linecap:butt;stroke-linejoin:miter;stroke-miterlimit:4;stroke-opacity:1;stroke-dasharray:none"
         id="path42" /><path
         inkscape:connector-curvature="0"
         d="m 414.66454,268.48447 2.718,0 0,10.375 c 0,0.07 0,0.144 0,0.218 0.008,0.082 0.02,0.16 0.032,0.235 l -2.891,-2.61 c -0.031,-0.031 -0.058,-0.047 -0.078,-0.047 -0.031,0 -0.063,0.016 -0.094,0.047 l -0.047,0.063 3.157,2.828 0.109,0 0,-11.109 2.656,0 0,-0.157 -5.562,0 0,0.157 z"
         style="fill:none;stroke:#000000;stroke-width:1.12;stroke-linecap:butt;stroke-linejoin:miter;stroke-miterlimit:4;stroke-opacity:1;stroke-dasharray:none"
         id="path48-6" /><text
         id="text3924"
         y="-272.67365"
         x="422.51068"
         style="font-size:32px;font-style:normal;font-variant:normal;font-weight:normal;font-stretch:normal;text-indent:0;text-align:start;text-decoration:none;line-height:normal;letter-spacing:normal;word-spacing:normal;text-transform:none;direction:ltr;block-progression:tb;writing-mode:lr-tb;text-anchor:start;baseline-shift:baseline;color:#000000;fill:#000000;fill-opacity:1;fill-rule:nonzero;stroke:#000000;stroke-width:1.12;stroke-miterlimit:4;stroke-opacity:1;stroke-dasharray:none;marker:none;visibility:visible;display:inline;overflow:visible;enable-background:accumulate;font-family:Lato Hairline;-inkscape-font-specification:Lato-Hairline"
         xml:space="preserve"
         transform="scale(1,-1)"><tspan
           style="stroke-width:1.12"
           y="-272.67365"
           x="422.51068"
           id="tspan3926"
           sodipodi:role="line">-</tspan></text>
<text
         xml:space="preserve"
         style="font-size:32px;font-style:normal;font-variant:normal;font-weight:normal;font-stretch:normal;text-indent:0;text-align:start;text-decoration:none;line-height:normal;letter-spacing:normal;word-spacing:normal;text-transform:none;direction:ltr;block-progression:tb;writing-mode:lr-tb;text-anchor:start;baseline-shift:baseline;color:#000000;fill:#000000;fill-opacity:1;fill-rule:nonzero;stroke:none;stroke-width:1.25;marker:none;visibility:visible;display:inline;overflow:visible;enable-background:accumulate;font-family:Latin Modern Math;-inkscape-font-specification:LModernMath-Regular"
         x="432.84494"
         y="-272.73907"
         id="text3928"
         transform="scale(1,-1)"><tspan
           sodipodi:role="line"
           id="tspan3930"
           x="432.84494"
           y="-272.73907">θ</tspan></text>
</g></g></svg>