<?xml version="1.0" encoding="UTF-8" standalone="no"?>
<!-- Created with Inkscape (http://www.inkscape.org/) -->

<svg
   xmlns:dc="http://purl.org/dc/elements/1.1/"
   xmlns:cc="http://creativecommons.org/ns#"
   xmlns:rdf="http://www.w3.org/1999/02/22-rdf-syntax-ns#"
   xmlns:svg="http://www.w3.org/2000/svg"
   xmlns="http://www.w3.org/2000/svg"
   xmlns:sodipodi="http://sodipodi.sourceforge.net/DTD/sodipodi-0.dtd"
   xmlns:inkscape="http://www.inkscape.org/namespaces/inkscape"
   id="svg2"
   version="1.1"
   inkscape:version="0.48.4 r9939"
   width="1052.3622"
   height="744.09447"
   xml:space="preserve"
   sodipodi:docname="nw4.pdf"><metadata
     id="metadata8"><rdf:RDF><cc:Work
         rdf:about=""><dc:format>image/svg+xml</dc:format><dc:type
           rdf:resource="http://purl.org/dc/dcmitype/StillImage" /><dc:title></dc:title></cc:Work></rdf:RDF></metadata><defs
     id="defs6" /><sodipodi:namedview
     pagecolor="#ffffff"
     bordercolor="#666666"
     borderopacity="1"
     objecttolerance="10"
     gridtolerance="10"
     guidetolerance="10"
     inkscape:pageopacity="0"
     inkscape:pageshadow="2"
     inkscape:window-width="1877"
     inkscape:window-height="1056"
     id="namedview4"
     showgrid="false"
     inkscape:zoom="6.7944895"
     inkscape:cx="323.87415"
     inkscape:cy="224.19026"
     inkscape:window-x="43"
     inkscape:window-y="24"
     inkscape:window-maximized="1"
     inkscape:current-layer="g12" /><g
     id="g10"
     inkscape:groupmode="layer"
     inkscape:label="nw4"
     transform="matrix(1.25,0,0,-1.25,0,744.09447)"><g
       id="g12"><path
         d="M 427.41,152.385 C 391.465,80.49 304.039,51.346 232.145,87.295 204,101.365 181.176,124.178 167.09,152.311 l 130.14,65.164 130.18,-65.09 z"
         style="fill:#a4a5a4;fill-opacity:1;fill-rule:nonzero;stroke:none"
         id="path14" /><text
         transform="scale(1,-1)"
         id="text16"
         style="stroke-width:1.12;stroke-miterlimit:4;stroke-dasharray:none"
         x="288.7608"
         y="-174.2282"><tspan
           style="font-size:32px;font-variant:normal;font-weight:normal;writing-mode:lr-tb;fill:#000000;fill-opacity:1;fill-rule:nonzero;stroke:#000000;stroke-width:1.12;stroke-miterlimit:4;stroke-opacity:1;stroke-dasharray:none;font-family:Lato Light;-inkscape-font-specification:Lato Light"
           x="288.7608 307.67279"
           y="-174.2282"
           sodipodi:role="line"
           id="tspan18">x </tspan></text>
<text
         transform="scale(1,-1)"
         id="text20"
         x="302.98325"
         y="-168.30217"><tspan
           style="font-size:medium;font-style:normal;font-variant:normal;font-weight:normal;font-stretch:normal;text-indent:0;text-align:start;text-decoration:none;line-height:normal;letter-spacing:normal;word-spacing:normal;text-transform:none;direction:ltr;block-progression:tb;writing-mode:lr-tb;text-anchor:start;baseline-shift:baseline;color:#000000;fill:#000000;fill-opacity:1;fill-rule:nonzero;stroke:#000000;stroke-width:0.89600003;stroke-linecap:butt;stroke-linejoin:miter;stroke-miterlimit:4;stroke-opacity:1;stroke-dasharray:none;stroke-dashoffset:0;marker:none;visibility:visible;display:inline;overflow:visible;enable-background:accumulate;font-family:Lato Light;-inkscape-font-specification:Lato Light"
           x="302.98325"
           y="-168.30217"
           id="tspan22">4</tspan></text>
<path
         d="m 351.375,398.35 c 3.551,-1.805 4.969,-6.145 3.164,-9.696 -1.801,-3.55 -6.144,-4.968 -9.695,-3.164 -3.551,1.805 -4.969,6.145 -3.164,9.696 1.769,3.488 6,4.926 9.531,3.246"
         style="fill:#000000;fill-opacity:1;fill-rule:nonzero;stroke:none"
         id="path24" /><g
         id="g26"
         transform="matrix(1,-0.759605,-0.759605,-1,0,595.27557)"><path
           d="m 358.311,-147.21 c 60.086,22.066 90.909,88.66 68.845,148.748 -22.064,60.088 -88.66,90.909 -148.748,68.845 -60.085,-22.066 -90.909,-88.66 -68.845,-148.748 11.766,-32.043 37.061,-57.269 69.137,-68.95 l 39.66,108.901 39.951,-108.796 z"
           style="fill:none;stroke:#000000;stroke-opacity:1;stroke-width:0.902907;stroke-linecap:butt;stroke-linejoin:miter;stroke-miterlimit:4;stroke-dasharray:none"
           id="path28" /></g><g
         id="g30"
         transform="matrix(1,0,0,-1,0,595.27557)"><path
           d="m 256.215,336.703 -4.461,5.875"
           style="fill:#000300;fill-opacity:1;fill-rule:nonzero;stroke:#000000;stroke-opacity:1;stroke-width:1.133858;stroke-linecap:butt;stroke-linejoin:miter;stroke-miterlimit:4;stroke-dasharray:none"
           id="path32" /></g><g
         id="g34"
         transform="matrix(1,0,0,-1,0,595.27557)"><path
           d="m 250.738,332.652 5.879,4.457"
           style="fill:#000300;fill-opacity:1;fill-rule:nonzero;stroke:#000000;stroke-opacity:1;stroke-width:1.133858;stroke-linecap:butt;stroke-linejoin:miter;stroke-miterlimit:4;stroke-dasharray:none"
           id="path36" /></g><g
         id="g38"
         transform="matrix(1,0.135202,0.135202,-1,0,595.27557)"><path
           d="m 256.678,425.703 c -7.824,8.786 -21.289,9.567 -30.075,1.739 -2.911,-2.589 -5.053,-5.929 -6.198,-9.655"
           style="fill:none;stroke:#000000;stroke-opacity:1;stroke-width:1.685452;stroke-linecap:butt;stroke-linejoin:miter;stroke-miterlimit:4;stroke-dasharray:none"
           id="path40" /></g><g
         id="g42"
         transform="matrix(1,0,0,-1,0,595.27557)"><path
           d="M 245.984,338.996 413.246,465.711"
           style="fill:#ff0300;fill-opacity:1;fill-rule:nonzero;stroke:#ff0000;stroke-opacity:1;stroke-width:1.417323;stroke-linecap:butt;stroke-linejoin:miter;stroke-miterlimit:4;stroke-dasharray:none"
           id="path44" /></g><g
         id="g46"
         transform="matrix(1,0,0,-1,0,595.27557)"><path
           d="M 152.879,462.371 348.758,203.062"
           style="fill:#008080;fill-opacity:1;fill-rule:nonzero;stroke:#000000;stroke-opacity:1;stroke-width:1.133858;stroke-linecap:butt;stroke-linejoin:miter;stroke-miterlimit:4;stroke-dasharray:none"
           id="path48" /></g><g
         id="g50"
         transform="matrix(0.755374,1,1,-0.755374,0,595.27557)"><path
           d="m -211.818,319.717 3.617,-3.619 -12.665,3.618 12.667,3.619 -3.619,-3.618 z"
           style="fill:#000000;fill-opacity:1;fill-rule:evenodd;stroke:#000000;stroke-opacity:1;stroke-width:0.904747;stroke-linecap:butt;stroke-linejoin:miter;stroke-miterlimit:4;stroke-dasharray:none"
           id="path52" /></g></g></g></svg>