<?xml version="1.0" encoding="UTF-8" standalone="no"?>
<!-- Created with Inkscape (http://www.inkscape.org/) -->

<svg
   xmlns:dc="http://purl.org/dc/elements/1.1/"
   xmlns:cc="http://creativecommons.org/ns#"
   xmlns:rdf="http://www.w3.org/1999/02/22-rdf-syntax-ns#"
   xmlns:svg="http://www.w3.org/2000/svg"
   xmlns="http://www.w3.org/2000/svg"
   xmlns:sodipodi="http://sodipodi.sourceforge.net/DTD/sodipodi-0.dtd"
   xmlns:inkscape="http://www.inkscape.org/namespaces/inkscape"
   id="svg2"
   version="1.1"
   inkscape:version="0.48.4 r9939"
   width="1052.3622"
   height="744.09447"
   xml:space="preserve"
   sodipodi:docname="se3.pdf"><metadata
     id="metadata8"><rdf:RDF><cc:Work
         rdf:about=""><dc:format>image/svg+xml</dc:format><dc:type
           rdf:resource="http://purl.org/dc/dcmitype/StillImage" /><dc:title></dc:title></cc:Work></rdf:RDF></metadata><defs
     id="defs6" /><sodipodi:namedview
     pagecolor="#ffffff"
     bordercolor="#666666"
     borderopacity="1"
     objecttolerance="10"
     gridtolerance="10"
     guidetolerance="10"
     inkscape:pageopacity="0"
     inkscape:pageshadow="2"
     inkscape:window-width="1877"
     inkscape:window-height="1056"
     id="namedview4"
     showgrid="false"
     inkscape:zoom="2.4022148"
     inkscape:cx="359.0184"
     inkscape:cy="429.71249"
     inkscape:window-x="43"
     inkscape:window-y="24"
     inkscape:window-maximized="1"
     inkscape:current-layer="g12" /><g
     id="g10"
     inkscape:groupmode="layer"
     inkscape:label="se3"
     transform="matrix(1.25,0,0,-1.25,0,744.09447)"><g
       id="g12"><path
         d="m 413.637,410.819 c 33.718,-72.969 1.898,-159.457 -71.071,-193.176 -72.968,-33.719 -159.453,-1.899 -193.171,71.07 -17.907,38.746 -17.899,83.399 0.015,122.141 l 132.106,-61.09 132.121,61.055 z"
         style="fill:#a4a5a4;fill-opacity:1;fill-rule:nonzero;stroke:none"
         id="path14" /><g
         id="g16"
         transform="matrix(-0.471444,-1,-0.997944,0.475758,0,595.27557)"><path
           d="m 105.509,-346.599 c -34.257,64.134 -114.016,88.352 -178.15,54.096 -23.337,-12.466 -42.377,-31.673 -54.638,-55.121 l 116.665,-61.001 116.123,62.026 z"
           style="fill:none;stroke:#000000;stroke-opacity:1;stroke-width:0.886103;stroke-linecap:butt;stroke-linejoin:miter;stroke-miterlimit:4;stroke-dasharray:none"
           id="path18" /></g><path
         d="m 420.176,411.916 c 0.156,-3.988 -2.934,-7.34 -6.91,-7.488 -3.973,-0.149 -7.321,2.965 -7.481,6.949 -0.16,3.988 2.934,7.34 6.906,7.488 3.903,0.149 7.215,-2.855 7.473,-6.765"
         style="fill:#000000;fill-opacity:1;fill-rule:nonzero;stroke:none"
         id="path20" /><g
         id="g22"
         transform="matrix(1,0,0,-1,0,595.27557)"><path
           d="m 334.766,155.48 3.605,-7.378"
           style="fill:#008080;fill-opacity:1;fill-rule:nonzero;stroke:#000000;stroke-opacity:1;stroke-width:0.850394;stroke-linecap:butt;stroke-linejoin:miter;stroke-miterlimit:4;stroke-dasharray:none"
           id="path24" /></g><g
         id="g26"
         transform="matrix(1,0,0,-1,0,595.27557)"><path
           d="m 335.031,155.148 -7.375,-3.609"
           style="fill:#008080;fill-opacity:1;fill-rule:nonzero;stroke:#000000;stroke-opacity:1;stroke-width:0.850394;stroke-linecap:butt;stroke-linejoin:miter;stroke-miterlimit:4;stroke-dasharray:none"
           id="path28" /></g><g
         id="g30"
         transform="matrix(-0.471444,-1,-0.997944,0.475758,0,595.27557)"><path
           d="m 324.142,-324.611 c -34.257,64.134 -114.017,88.352 -178.149,54.099 -23.338,-12.469 -42.379,-31.676 -54.636,-55.125 l 116.662,-61 116.123,62.026 z"
           style="fill:none;stroke:#000000;stroke-opacity:1;stroke-width:0.886103;stroke-linecap:butt;stroke-linejoin:miter;stroke-miterlimit:4;stroke-dasharray:none"
           id="path32" /></g><path
         d="m 295.156,203.744 c 0.16,-3.988 -2.933,-7.34 -6.906,-7.488 -3.973,-0.148 -7.324,2.961 -7.48,6.949 -0.161,3.989 2.933,7.34 6.906,7.489 3.902,0.144 7.215,-2.856 7.472,-6.766"
         style="fill:#000000;fill-opacity:1;fill-rule:nonzero;stroke:none"
         id="path34" /><g
         id="g36"
         transform="matrix(1,0,0,-1,0,595.27557)"><path
           d="m 236.363,357.715 -7.379,-3.602"
           style="fill:#008080;fill-opacity:1;fill-rule:nonzero;stroke:#000000;stroke-opacity:1;stroke-width:0.850394;stroke-linecap:butt;stroke-linejoin:miter;stroke-miterlimit:4;stroke-dasharray:none"
           id="path38" /></g><g
         id="g40"
         transform="matrix(1,0,0,-1,0,595.27557)"><path
           d="m 236.031,357.449 -3.605,7.375"
           style="fill:#008080;fill-opacity:1;fill-rule:nonzero;stroke:#000000;stroke-opacity:1;stroke-width:0.850394;stroke-linecap:butt;stroke-linejoin:miter;stroke-miterlimit:4;stroke-dasharray:none"
           id="path42" /></g><g
         id="g44"
         transform="matrix(1,0,0,-1,0,595.27557)"><path
           d="M 224.75,361.867 330.715,144.387"
           style="fill:#008080;fill-opacity:1;fill-rule:nonzero;stroke:#ff0000;stroke-opacity:1;stroke-width:1.417323;stroke-linecap:butt;stroke-linejoin:miter;stroke-miterlimit:4;stroke-dasharray:none"
           id="path46" /></g><g
         id="g48"
         transform="matrix(1,0,0,-1,0,595.27557)"><path
           d="M 84.168,295.324 364.875,429.031"
           style="fill:#008080;fill-opacity:1;fill-rule:nonzero;stroke:#000000;stroke-opacity:1;stroke-width:1.133858;stroke-linecap:butt;stroke-linejoin:miter;stroke-miterlimit:4;stroke-dasharray:none"
           id="path50" /></g><g
         id="g52"
         transform="matrix(1,-0.476319,-0.476319,-1,0,595.27557)"><path
           d="m 187.352,208.034 2.048,-2.049 -7.165,2.049 7.163,2.049 -2.046,-2.049 z"
           style="fill:#000000;fill-opacity:1;fill-rule:evenodd;stroke:#000000;stroke-opacity:1;stroke-width:0.511832;stroke-linecap:butt;stroke-linejoin:miter;stroke-miterlimit:4;stroke-dasharray:none"
           id="path54" /></g><g
         id="g56"
         transform="matrix(1,0,0,-1,0,595.27557)"><path
           d="M 199.582,81.551 480.293,215.258"
           style="fill:#008080;fill-opacity:1;fill-rule:nonzero;stroke:#000000;stroke-opacity:1;stroke-width:1.133858;stroke-linecap:butt;stroke-linejoin:miter;stroke-miterlimit:4;stroke-dasharray:none"
           id="path58" /></g><g
         id="g60"
         transform="matrix(1,-0.476319,-0.476319,-1,0,595.27557)"><path
           d="m 198.432,-11.017 2.046,-2.045 -7.166,2.046 7.166,2.048 -2.046,-2.049 z"
           style="fill:#000000;fill-opacity:1;fill-rule:evenodd;stroke:#000000;stroke-opacity:1;stroke-width:0.511832;stroke-linecap:butt;stroke-linejoin:miter;stroke-miterlimit:4;stroke-dasharray:none"
           id="path62" /></g><path
         inkscape:connector-curvature="0"
         d="m 211.55651,275.21783 0,21.453 0.094,0 c 0.156,0 0.235,-0.09 0.235,-0.266 l 0.046,-2.968 c 0.696,1.07 1.547,1.922 2.547,2.547 1,0.625 2.098,0.937 3.297,0.937 2.02,0 3.567,-0.656 4.641,-1.969 1.082,-1.304 1.625,-3.312 1.625,-6.031 0,-1.148 -0.149,-2.215 -0.438,-3.203 -0.293,-0.981 -0.73,-1.836 -1.312,-2.563 -0.574,-0.73 -1.293,-1.308 -2.156,-1.734 -0.856,-0.418 -1.844,-0.625 -2.969,-0.625 -2.313,0 -4.055,0.93 -5.219,2.797 l 0,-8.375 -0.391,0 z m 6.219,21.375 c -1.168,0 -2.25,-0.328 -3.25,-0.984 -1,-0.649 -1.859,-1.543 -2.578,-2.688 l 0,-8.812 c 0.676,-1.106 1.438,-1.883 2.281,-2.329 0.844,-0.449 1.821,-0.671 2.938,-0.671 1.094,0 2.047,0.195 2.859,0.593 0.813,0.407 1.485,0.957 2.016,1.657 0.539,0.707 0.941,1.535 1.203,2.484 0.269,0.945 0.406,1.973 0.406,3.078 0,2.602 -0.5,4.531 -1.5,5.781 -0.992,1.258 -2.449,1.891 -4.375,1.891 z"
         style="fill:none;stroke:#ff0024;stroke-width:1.12;stroke-linecap:butt;stroke-linejoin:miter;stroke-miterlimit:4;stroke-opacity:1;stroke-dasharray:none"
         id="path60" /><text
         xml:space="preserve"
         style="font-size:32px;font-style:normal;font-variant:normal;font-weight:normal;font-stretch:normal;line-height:125%;letter-spacing:0px;word-spacing:0px;fill:#000000;fill-opacity:1;stroke:none;font-family:Lato;-inkscape-font-specification:Lato"
         x="221.73019"
         y="-268.41898"
         id="text3062"
         sodipodi:linespacing="125%"
         transform="scale(1,-1)"><tspan
           sodipodi:role="line"
           id="tspan3064"
           x="221.73019"
           y="-268.41898"
           style="font-size:16px;font-style:normal;font-variant:normal;font-weight:300;font-stretch:normal;fill:#ff0000;fill-opacity:1;stroke:#ff0000;stroke-width:1.12;stroke-miterlimit:4;stroke-opacity:1;stroke-dasharray:none;font-family:Lato;-inkscape-font-specification:Lato Light">L</tspan></text>
<path
         id="path3834"
         style="fill:none;stroke:#ff0024;stroke-width:1.12;stroke-linecap:butt;stroke-linejoin:miter;stroke-miterlimit:4;stroke-opacity:1;stroke-dasharray:none"
         d="m 324.45233,402.76679 0,21.453 0.094,0 c 0.156,0 0.235,-0.09 0.235,-0.266 l 0.046,-2.968 c 0.696,1.07 1.547,1.922 2.547,2.547 1,0.625 2.098,0.937 3.297,0.937 2.02,0 3.567,-0.656 4.641,-1.969 1.082,-1.304 1.625,-3.312 1.625,-6.031 0,-1.148 -0.149,-2.215 -0.438,-3.203 -0.293,-0.981 -0.73,-1.836 -1.312,-2.563 -0.574,-0.73 -1.293,-1.308 -2.156,-1.734 -0.856,-0.418 -1.844,-0.625 -2.969,-0.625 -2.313,0 -4.055,0.93 -5.219,2.797 l 0,-8.375 -0.391,0 z m 6.219,21.375 c -1.168,0 -2.25,-0.328 -3.25,-0.984 -1,-0.649 -1.859,-1.543 -2.578,-2.688 l 0,-8.812 c 0.676,-1.106 1.438,-1.883 2.281,-2.329 0.844,-0.449 1.821,-0.671 2.938,-0.671 1.094,0 2.047,0.195 2.859,0.593 0.813,0.407 1.485,0.957 2.016,1.657 0.539,0.707 0.941,1.535 1.203,2.484 0.269,0.945 0.406,1.973 0.406,3.078 0,2.602 -0.5,4.531 -1.5,5.781 -0.992,1.258 -2.449,1.891 -4.375,1.891 z"
         inkscape:connector-curvature="0" /><text
         transform="scale(1,-1)"
         sodipodi:linespacing="125%"
         id="text3836"
         y="-395.96793"
         x="334.62601"
         style="font-size:32px;font-style:normal;font-variant:normal;font-weight:normal;font-stretch:normal;line-height:125%;letter-spacing:0px;word-spacing:0px;fill:#000000;fill-opacity:1;stroke:none;font-family:Lato;-inkscape-font-specification:Lato"
         xml:space="preserve"><tspan
           style="font-size:16px;font-style:normal;font-variant:normal;font-weight:300;font-stretch:normal;fill:#ff0000;fill-opacity:1;stroke:#ff0000;stroke-width:1.12;stroke-miterlimit:4;stroke-opacity:1;stroke-dasharray:none;font-family:Lato;-inkscape-font-specification:Lato Light"
           y="-395.96793"
           x="334.62601"
           id="tspan3838"
           sodipodi:role="line">R</tspan></text>
</g></g></svg>