<?xml version="1.0" encoding="UTF-8" standalone="no"?>
<!-- Created with Inkscape (http://www.inkscape.org/) -->

<svg
   xmlns:dc="http://purl.org/dc/elements/1.1/"
   xmlns:cc="http://creativecommons.org/ns#"
   xmlns:rdf="http://www.w3.org/1999/02/22-rdf-syntax-ns#"
   xmlns:svg="http://www.w3.org/2000/svg"
   xmlns="http://www.w3.org/2000/svg"
   xmlns:sodipodi="http://sodipodi.sourceforge.net/DTD/sodipodi-0.dtd"
   xmlns:inkscape="http://www.inkscape.org/namespaces/inkscape"
   id="svg2"
   version="1.1"
   inkscape:version="0.48.4 r9939"
   width="1052.3622"
   height="744.09447"
   xml:space="preserve"
   sodipodi:docname="x1.pdf"><metadata
     id="metadata8"><rdf:RDF><cc:Work
         rdf:about=""><dc:format>image/svg+xml</dc:format><dc:type
           rdf:resource="http://purl.org/dc/dcmitype/StillImage" /><dc:title></dc:title></cc:Work></rdf:RDF></metadata><defs
     id="defs6" /><sodipodi:namedview
     pagecolor="#ffffff"
     bordercolor="#666666"
     borderopacity="1"
     objecttolerance="10"
     gridtolerance="10"
     guidetolerance="10"
     inkscape:pageopacity="0"
     inkscape:pageshadow="2"
     inkscape:window-width="1877"
     inkscape:window-height="1056"
     id="namedview4"
     showgrid="false"
     inkscape:zoom="0.84931118"
     inkscape:cx="582.0492"
     inkscape:cy="478.09498"
     inkscape:window-x="43"
     inkscape:window-y="24"
     inkscape:window-maximized="1"
     inkscape:current-layer="g12" /><g
     id="g10"
     inkscape:groupmode="layer"
     inkscape:label="x1"
     transform="matrix(1.25,0,0,-1.25,0,744.09447)"><g
       id="g12"><path
         d="m 493.883,461.549 c 66.738,-44.805 84.512,-135.23 39.707,-201.965 -44.809,-66.734 -135.231,-84.512 -201.965,-39.707 -66.738,44.809 -84.516,135.231 -39.707,201.969 10.988,16.363 25.184,30.324 41.727,41.035 l 79.109,-122.168 81.129,120.836 z"
         style="fill:#a4a5a4;fill-opacity:1;fill-rule:nonzero;stroke:none"
         id="path14" /><g
         id="g16"
         transform="matrix(-1,-0.862237,-0.862237,1,0,595.27557)"><path
           d="m -80.646,-513.81 c -36.549,48.686 -105.645,58.523 -154.33,21.975 -8.273,-6.212 -15.632,-13.557 -21.856,-21.818 l 88.032,-66.334 88.154,66.177 z"
           style="fill:none;stroke:#000000;stroke-opacity:1;stroke-width:0.858724;stroke-linecap:butt;stroke-linejoin:miter;stroke-miterlimit:4;stroke-dasharray:none"
           id="path18" /></g><g
         id="g20"
         transform="matrix(-1,-0.863564,-0.863564,1,0,595.27557)"><path
           d="m -171.52,-583.212 c 2.573,-1.572 5.931,-0.761 7.505,1.809 1.574,2.574 0.763,5.933 -1.807,7.506 -2.572,1.572 -5.932,0.764 -7.504,-1.808 -1.545,-2.526 -0.797,-5.822 1.688,-7.429"
           style="fill:#000000;fill-opacity:1;fill-rule:nonzero;stroke:#000000;stroke-opacity:1;stroke-width:0.858161;stroke-linecap:butt;stroke-linejoin:miter;stroke-miterlimit:4;stroke-dasharray:none"
           id="path22" /></g><g
         id="g24"
         transform="matrix(1,0,0,-1,0,595.27557)"><path
           d="m 412.82,253.867 0,146.242"
           style="fill:none;stroke:#000000;stroke-opacity:1;stroke-width:1.133858;stroke-linecap:butt;stroke-linejoin:miter;stroke-miterlimit:4;stroke-dasharray:none"
           id="path26" /></g><g
         id="g28"
         transform="matrix(1,0,0,-1,0,595.27557)"><path
           d="m 424.191,243.906 c 5.371,6.285 4.629,15.739 -1.66,21.106 -2.519,2.152 -5.683,3.41 -8.996,3.57"
           style="fill:none;stroke:#000000;stroke-opacity:1;stroke-width:1.133858;stroke-linecap:round;stroke-linejoin:miter;stroke-miterlimit:4;stroke-dasharray:none"
           id="path30" /></g><text
         transform="scale(1,-1)"
         id="text40"
         style="stroke-width:1.12;stroke-miterlimit:4;stroke-dasharray:none"
         x="357.70224"
         y="-315.25537"><tspan
           style="font-size:32px;font-variant:normal;font-weight:normal;writing-mode:lr-tb;fill:#ff0000;fill-opacity:1;fill-rule:nonzero;stroke:#ff0000;stroke-width:1.12;stroke-miterlimit:4;stroke-opacity:1;stroke-dasharray:none;font-family:Lato Light;-inkscape-font-specification:Lato Light"
           x="357.70224"
           y="-315.25537"
           id="tspan42">p</tspan></text>
<g
         id="g44"
         transform="matrix(1,0,0,-1,0,595.27557)"><path
           d="M 668.215,432.008 472.348,205.375"
           style="fill:none;stroke:#000000;stroke-opacity:1;stroke-width:1.133858;stroke-linecap:butt;stroke-linejoin:miter;stroke-miterlimit:4;stroke-dasharray:none"
           id="path46" /></g><path
         d="m 474.148,383.619 -2.793,7.41 6.93,-3.835 c -1.996,-0.157 -3.664,-1.606 -4.137,-3.575 z"
         style="fill:#000000;fill-opacity:1;fill-rule:evenodd;stroke:none"
         id="path48" /><g
         id="g50"
         transform="matrix(1,0,0,-1,0,595.27557)"><path
           d="m 469.938,217.934 -6.735,-7.356"
           style="fill:none;stroke:#000000;stroke-opacity:1;stroke-width:0.808701;stroke-linecap:butt;stroke-linejoin:miter;stroke-miterlimit:4;stroke-dasharray:none"
           id="path52" /></g><g
         id="g54"
         transform="matrix(1,0,0,-1,0,595.27557)"><path
           d="m 476.645,211.074 -7.262,6.832"
           style="fill:none;stroke:#000000;stroke-opacity:1;stroke-width:0.808701;stroke-linecap:butt;stroke-linejoin:miter;stroke-miterlimit:4;stroke-dasharray:none"
           id="path56" /></g><g
         id="g58"
         transform="matrix(1,0,0,-1,0,595.27557)"><path
           d="M 352.039,306.316 471.023,203.559"
           style="fill:none;stroke:#fc0000;stroke-opacity:1;stroke-width:1.700787;stroke-linecap:butt;stroke-linejoin:miter;stroke-miterlimit:4;stroke-dasharray:none"
           id="path60" /></g><path
         inkscape:connector-curvature="0"
         d="m 437.32754,330.24601 -5.641,7.719 0.359,0 c 0.082,0 0.145,-0.032 0.188,-0.094 0.039,-0.063 0.07,-0.11 0.094,-0.141 l 5.265,-7.281 c 0.02,0.039 0.039,0.078 0.063,0.109 0.019,0.039 0.047,0.086 0.078,0.141 l 5.125,7.031 c 0.031,0.051 0.066,0.102 0.109,0.156 0.051,0.051 0.11,0.079 0.172,0.079 l 0.359,0 -5.64,-7.672 5.859,-8.016 -0.344,0 c -0.085,0 -0.152,0.023 -0.203,0.078 -0.043,0.063 -0.074,0.11 -0.093,0.141 l -5.5,7.594 c -0.012,-0.055 -0.055,-0.133 -0.125,-0.235 l -5.344,-7.359 c -0.043,-0.055 -0.086,-0.106 -0.125,-0.156 -0.043,-0.043 -0.102,-0.063 -0.172,-0.063 l -0.344,0 5.86,7.969 z"
         style="fill:none;stroke:#000000;stroke-width:1.12;stroke-linecap:butt;stroke-linejoin:miter;stroke-miterlimit:4;stroke-opacity:1;stroke-dasharray:none"
         id="path42" /><path
         inkscape:connector-curvature="0"
         d="m 447.48754,315.92201 2.718,0 0,10.375 c 0,0.07 0,0.144 0,0.218 0.008,0.082 0.02,0.16 0.032,0.235 l -2.891,-2.61 c -0.031,-0.031 -0.058,-0.047 -0.078,-0.047 -0.031,0 -0.063,0.016 -0.094,0.047 l -0.047,0.063 3.157,2.828 0.109,0 0,-11.109 2.656,0 0,-0.157 -5.562,0 0,0.157 z"
         style="fill:none;stroke:#000000;stroke-width:1.12;stroke-linecap:butt;stroke-linejoin:miter;stroke-miterlimit:4;stroke-opacity:1;stroke-dasharray:none"
         id="path48-0" /></g></g></svg>