<?xml version="1.0" encoding="UTF-8" standalone="no"?>
<!-- Created with Inkscape (http://www.inkscape.org/) -->

<svg
   xmlns:dc="http://purl.org/dc/elements/1.1/"
   xmlns:cc="http://creativecommons.org/ns#"
   xmlns:rdf="http://www.w3.org/1999/02/22-rdf-syntax-ns#"
   xmlns:svg="http://www.w3.org/2000/svg"
   xmlns="http://www.w3.org/2000/svg"
   xmlns:sodipodi="http://sodipodi.sourceforge.net/DTD/sodipodi-0.dtd"
   xmlns:inkscape="http://www.inkscape.org/namespaces/inkscape"
   id="svg2"
   version="1.1"
   inkscape:version="0.48.4 r9939"
   width="1052.3622"
   height="744.09447"
   xml:space="preserve"
   sodipodi:docname="x3.pdf"><metadata
     id="metadata8"><rdf:RDF><cc:Work
         rdf:about=""><dc:format>image/svg+xml</dc:format><dc:type
           rdf:resource="http://purl.org/dc/dcmitype/StillImage" /><dc:title></dc:title></cc:Work></rdf:RDF></metadata><defs
     id="defs6" /><sodipodi:namedview
     pagecolor="#ffffff"
     bordercolor="#666666"
     borderopacity="1"
     objecttolerance="10"
     gridtolerance="10"
     guidetolerance="10"
     inkscape:pageopacity="0"
     inkscape:pageshadow="2"
     inkscape:window-width="1877"
     inkscape:window-height="1056"
     id="namedview4"
     showgrid="false"
     inkscape:zoom="4.8044296"
     inkscape:cx="533.20005"
     inkscape:cy="327.09626"
     inkscape:window-x="43"
     inkscape:window-y="24"
     inkscape:window-maximized="1"
     inkscape:current-layer="g10" /><g
     id="g10"
     inkscape:groupmode="layer"
     inkscape:label="x3"
     transform="matrix(1.25,0,0,-1.25,0,744.09447)"><g
       id="g12"><path
         d="m 487.402,215.772 c -45.953,-27.457 -103.265,-27.469 -149.23,-0.039 l 74.582,124.98 74.648,-124.941 z"
         style="fill:#a4a5a4;fill-opacity:1;fill-rule:nonzero;stroke:none"
         id="path14" /><g
         id="g16"
         transform="matrix(-1,-0.853649,-0.853649,1,0,595.27557)"><path
           d="m -46.008,-491.314 c -39.31,29.686 -93.502,29.823 -132.96,0.342 l 66.251,-88.678 66.709,88.336 z"
           style="fill:none;stroke:#000000;stroke-opacity:1;stroke-width:0.745075;stroke-linecap:butt;stroke-linejoin:miter;stroke-miterlimit:4;stroke-dasharray:none"
           id="path18" /></g><path
         d="m 614.469,109.221 c -1.489,-3.695 -5.692,-5.484 -9.387,-3.996 -3.691,1.488 -5.48,5.691 -3.992,9.387 1.488,3.695 5.687,5.48 9.383,3.992 3.629,-1.461 5.429,-5.547 4.062,-9.211"
         style="fill:#000000;fill-opacity:1;fill-rule:nonzero;stroke:none"
         id="path20" /><g
         id="g30"
         transform="matrix(1,0,0,-1,0,595.27557)"><path
           d="M 443.254,290.133 338.777,379.359"
           style="fill:none;stroke:#ff0000;stroke-opacity:1;stroke-width:1.133858;stroke-linecap:butt;stroke-linejoin:miter;stroke-miterlimit:4;stroke-dasharray:none"
           id="path32" /></g><g
         id="g34"
         transform="matrix(1,0,0,-1,0,595.27557)"><path
           d="m 385.848,222.906 223.461,261.59"
           style="fill:#008080;fill-opacity:1;fill-rule:nonzero;stroke:#000000;stroke-opacity:1;stroke-width:1.133858;stroke-linecap:butt;stroke-linejoin:miter;stroke-miterlimit:4;stroke-dasharray:none"
           id="path36" /></g><g
         id="g38"
         transform="matrix(0.85424,-1,-1,-0.85424,0,595.27557)"><path
           d="m 322.871,-112.984 1.724,-1.726 -6.035,1.724 6.035,1.725 -1.724,-1.723 z"
           style="fill:#000000;fill-opacity:1;fill-rule:evenodd;stroke:#000000;stroke-opacity:1;stroke-width:0.431062;stroke-linecap:butt;stroke-linejoin:miter;stroke-miterlimit:4;stroke-dasharray:none"
           id="path40" /></g><g
         id="g42"
         transform="matrix(1,0,0,-1,0,595.27557)"><path
           d="m 486.949,379.188 -148.722,0.031"
           style="fill:none;stroke:#000000;stroke-opacity:1;stroke-width:1.133858;stroke-linecap:butt;stroke-linejoin:miter;stroke-miterlimit:4;stroke-dasharray:none"
           id="path44" /></g><g
         id="g46"
         transform="matrix(1,0,0,-1,0,595.27557)"><path
           d="m 426.895,270.543 c -6.907,6.492 -17.254,7.691 -25.465,2.953"
           style="fill:none;stroke:#000000;stroke-opacity:1;stroke-width:1.700787;stroke-linecap:butt;stroke-linejoin:miter;stroke-miterlimit:4;stroke-dasharray:none"
           id="path48" /></g></g><path
       id="path3963"
       style="fill:none;stroke:#000000;stroke-width:1.12;stroke-linecap:butt;stroke-linejoin:miter;stroke-miterlimit:4;stroke-opacity:1;stroke-dasharray:none"
       d="m 406.68914,306.9342 -5.641,7.719 0.359,0 c 0.082,0 0.145,-0.032 0.188,-0.094 0.039,-0.063 0.07,-0.11 0.094,-0.141 l 5.265,-7.281 c 0.02,0.039 0.039,0.078 0.063,0.109 0.019,0.039 0.047,0.086 0.078,0.141 l 5.125,7.031 c 0.031,0.051 0.066,0.102 0.109,0.156 0.051,0.051 0.11,0.079 0.172,0.079 l 0.359,0 -5.64,-7.672 5.859,-8.016 -0.344,0 c -0.085,0 -0.152,0.023 -0.203,0.078 -0.043,0.063 -0.074,0.11 -0.093,0.141 l -5.5,7.594 c -0.012,-0.055 -0.055,-0.133 -0.125,-0.235 l -5.344,-7.359 c -0.043,-0.055 -0.086,-0.106 -0.125,-0.156 -0.043,-0.043 -0.102,-0.063 -0.172,-0.063 l -0.344,0 z"
       inkscape:connector-curvature="0"
       sodipodi:nodetypes="ccscccccccscccsccccccscc" /><text
       xml:space="preserve"
       style="font-size:32px;font-style:normal;font-variant:normal;font-weight:normal;font-stretch:normal;line-height:125%;letter-spacing:0px;word-spacing:0px;fill:#000000;fill-opacity:1;stroke:none;font-family:Lato;-inkscape-font-specification:Lato"
       x="414.28436"
       y="-292.23032"
       id="text3034"
       sodipodi:linespacing="125%"
       transform="scale(1,-1)"><tspan
         sodipodi:role="line"
         id="tspan3036"
         x="414.28436"
         y="-292.23032"
         style="font-size:16px;font-style:normal;font-variant:normal;font-weight:300;font-stretch:normal;stroke:#000000;stroke-width:1.12000000000000011;stroke-miterlimit:4;stroke-opacity:1;stroke-dasharray:none;font-family:Lato;-inkscape-font-specification:Lato Light">3</tspan></text>
</g></svg>