<?xml version="1.0" encoding="UTF-8" standalone="no"?>
<!-- Created with Inkscape (http://www.inkscape.org/) -->

<svg
   xmlns:dc="http://purl.org/dc/elements/1.1/"
   xmlns:cc="http://creativecommons.org/ns#"
   xmlns:rdf="http://www.w3.org/1999/02/22-rdf-syntax-ns#"
   xmlns:svg="http://www.w3.org/2000/svg"
   xmlns="http://www.w3.org/2000/svg"
   xmlns:sodipodi="http://sodipodi.sourceforge.net/DTD/sodipodi-0.dtd"
   xmlns:inkscape="http://www.inkscape.org/namespaces/inkscape"
   id="svg2"
   version="1.1"
   inkscape:version="0.48.4 r9939"
   width="1052.3622"
   height="744.09447"
   xml:space="preserve"
   sodipodi:docname="x4.pdf"><metadata
     id="metadata8"><rdf:RDF><cc:Work
         rdf:about=""><dc:format>image/svg+xml</dc:format><dc:type
           rdf:resource="http://purl.org/dc/dcmitype/StillImage" /><dc:title></dc:title></cc:Work></rdf:RDF></metadata><defs
     id="defs6" /><sodipodi:namedview
     pagecolor="#ffffff"
     bordercolor="#666666"
     borderopacity="1"
     objecttolerance="10"
     gridtolerance="10"
     guidetolerance="10"
     inkscape:pageopacity="0"
     inkscape:pageshadow="2"
     inkscape:window-width="1877"
     inkscape:window-height="1056"
     id="namedview4"
     showgrid="false"
     inkscape:zoom="3.3972447"
     inkscape:cx="535.20098"
     inkscape:cy="340.79629"
     inkscape:window-x="43"
     inkscape:window-y="24"
     inkscape:window-maximized="1"
     inkscape:current-layer="g10" /><g
     id="g10"
     inkscape:groupmode="layer"
     inkscape:label="x4"
     transform="matrix(1.25,0,0,-1.25,0,744.09447)"><g
       id="g12"><path
         d="m 487.402,215.772 c -45.953,-27.457 -103.265,-27.469 -149.23,-0.039 l 74.582,124.98 74.648,-124.941 z"
         style="fill:#a4a5a4;fill-opacity:1;fill-rule:nonzero;stroke:none"
         id="path14" /><g
         id="g16"
         transform="matrix(0.324977,-1,-1,-0.324977,0,595.27557)"><path
           d="m 435.783,-352.037 c -49.152,37.117 -116.916,37.291 -166.256,0.428 l 82.845,-110.89 83.411,110.462 z"
           style="fill:none;stroke:#000000;stroke-opacity:1;stroke-width:0.931668;stroke-linecap:butt;stroke-linejoin:miter;stroke-miterlimit:4;stroke-dasharray:none"
           id="path18" /></g><path
         d="m 582.086,398.608 c 2.848,-2.786 2.891,-7.352 0.105,-10.2 -2.789,-2.843 -7.355,-2.89 -10.199,-0.101 -2.844,2.789 -2.89,7.355 -0.105,10.199 2.738,2.793 7.203,2.895 10.066,0.231"
         style="fill:#000000;fill-opacity:1;fill-rule:nonzero;stroke:none"
         id="path20" /><g
         id="g30"
         transform="matrix(1,0,0,-1,0,595.27557)"><path
           d="m 413.211,255.176 44.687,137.398"
           style="fill:none;stroke:#ff0000;stroke-opacity:1;stroke-width:1.700787;stroke-linecap:butt;stroke-linejoin:miter;stroke-miterlimit:4;stroke-dasharray:none"
           id="path32" /></g><g
         id="g34"
         transform="matrix(1,0,0,-1,0,595.27557)"><path
           d="M 328.789,282.633 578.145,201.504"
           style="fill:#008080;fill-opacity:1;fill-rule:nonzero;stroke:#000000;stroke-opacity:1;stroke-width:1.133858;stroke-linecap:butt;stroke-linejoin:miter;stroke-miterlimit:4;stroke-dasharray:none"
           id="path36" /></g><g
         id="g38"
         transform="matrix(1,0.325355,0.325355,-1,0,595.27557)"><path
           d="m 218.475,352.312 2.159,-2.157 -7.55,2.157 7.549,2.156 -2.158,-2.156 z"
           style="fill:#000000;fill-opacity:1;fill-rule:evenodd;stroke:#000000;stroke-opacity:1;stroke-width:0.539113;stroke-linecap:butt;stroke-linejoin:miter;stroke-miterlimit:4;stroke-dasharray:none"
           id="path40" /></g><g
         id="g42"
         transform="matrix(1,0,0,-1,0,595.27557)"><path
           d="m 419.117,275.223 c -5.867,2.004 -12.316,1.375 -17.687,-1.727"
           style="fill:none;stroke:#000000;stroke-opacity:1;stroke-width:1.700787;stroke-linecap:butt;stroke-linejoin:miter;stroke-miterlimit:4;stroke-dasharray:none"
           id="path44" /></g></g><path
       id="path3963"
       style="fill:none;stroke:#000000;stroke-width:1.12;stroke-linecap:butt;stroke-linejoin:miter;stroke-miterlimit:4;stroke-opacity:1;stroke-dasharray:none"
       d="m 403.3999,304.09527 -5.641,7.719 0.359,0 c 0.082,0 0.145,-0.032 0.188,-0.094 0.039,-0.063 0.07,-0.11 0.094,-0.141 l 5.265,-7.281 c 0.02,0.039 0.039,0.078 0.063,0.109 0.019,0.039 0.047,0.086 0.078,0.141 l 5.125,7.031 c 0.031,0.051 0.066,0.102 0.109,0.156 0.051,0.051 0.11,0.079 0.172,0.079 l 0.359,0 -5.64,-7.672 5.859,-8.016 -0.344,0 c -0.085,0 -0.152,0.023 -0.203,0.078 -0.043,0.063 -0.074,0.11 -0.093,0.141 l -5.5,7.594 c -0.012,-0.055 -0.055,-0.133 -0.125,-0.235 l -5.344,-7.359 c -0.043,-0.055 -0.086,-0.106 -0.125,-0.156 -0.043,-0.043 -0.102,-0.063 -0.172,-0.063 l -0.344,0 5.86,7.969 z"
       inkscape:connector-curvature="0" /><text
       xml:space="preserve"
       style="font-size:32px;font-style:normal;font-variant:normal;font-weight:normal;font-stretch:normal;line-height:125%;letter-spacing:0px;word-spacing:0px;fill:#000000;fill-opacity:1;stroke:none;font-family:Lato;-inkscape-font-specification:Lato"
       x="409.97928"
       y="-288.23355"
       id="text3030"
       sodipodi:linespacing="125%"
       transform="scale(1,-1)"><tspan
         sodipodi:role="line"
         id="tspan3032"
         x="409.97928"
         y="-288.23355"
         style="font-size:16px;font-style:normal;font-variant:normal;font-weight:300;font-stretch:normal;stroke:#000000;stroke-width:1.12;stroke-miterlimit:4;stroke-opacity:1;stroke-dasharray:none;font-family:Lato;-inkscape-font-specification:Lato Light">4</tspan></text>
</g></svg>