<?xml version="1.0" encoding="UTF-8" standalone="no"?>
<!-- Created with Inkscape (http://www.inkscape.org/) -->

<svg
   xmlns:dc="http://purl.org/dc/elements/1.1/"
   xmlns:cc="http://creativecommons.org/ns#"
   xmlns:rdf="http://www.w3.org/1999/02/22-rdf-syntax-ns#"
   xmlns:svg="http://www.w3.org/2000/svg"
   xmlns="http://www.w3.org/2000/svg"
   xmlns:sodipodi="http://sodipodi.sourceforge.net/DTD/sodipodi-0.dtd"
   xmlns:inkscape="http://www.inkscape.org/namespaces/inkscape"
   id="svg2"
   version="1.1"
   inkscape:version="0.48.4 r9939"
   width="1052.3622"
   height="744.09447"
   xml:space="preserve"
   sodipodi:docname="x4is0.pdf"><metadata
     id="metadata8"><rdf:RDF><cc:Work
         rdf:about=""><dc:format>image/svg+xml</dc:format><dc:type
           rdf:resource="http://purl.org/dc/dcmitype/StillImage" /><dc:title></dc:title></cc:Work></rdf:RDF></metadata><defs
     id="defs6" /><sodipodi:namedview
     pagecolor="#ffffff"
     bordercolor="#666666"
     borderopacity="1"
     objecttolerance="10"
     gridtolerance="10"
     guidetolerance="10"
     inkscape:pageopacity="0"
     inkscape:pageshadow="2"
     inkscape:window-width="1877"
     inkscape:window-height="1056"
     id="namedview4"
     showgrid="false"
     inkscape:zoom="2.4250206"
     inkscape:cx="732.29608"
     inkscape:cy="442.94594"
     inkscape:window-x="43"
     inkscape:window-y="24"
     inkscape:window-maximized="1"
     inkscape:current-layer="g12" /><g
     id="g10"
     inkscape:groupmode="layer"
     inkscape:label="x4is0"
     transform="matrix(1.25,0,0,-1.25,0,744.09447)"><g
       id="g12"><path
         d="m 514.402,280.553 c -40.285,-19.977 -87.543,-20.207 -128.023,-0.629 l 63.367,131.023 64.656,-130.394 z"
         style="fill:#a4a5a4;fill-opacity:1;fill-rule:nonzero;stroke:none"
         id="path14" /><g
         id="g16"
         transform="matrix(1,0,0,-1,0,595.27557)"><path
           d="M 449.719,183.457 386.93,314.695"
           style="fill:#008080;fill-opacity:1;fill-rule:nonzero;stroke:#ff0000;stroke-opacity:1;stroke-width:1.700787;stroke-linecap:butt;stroke-linejoin:miter;stroke-miterlimit:4;stroke-dasharray:5.102362,1.700787;stroke-dashoffset:0"
           id="path18" /></g><g
         id="g20"
         transform="matrix(-0.486741,-0.999336,-1,0.485369,0,595.27557)"><path
           d="m 61.125,-373.849 c -26.607,8.79 -55.333,8.815 -81.951,0.068 l 40.872,-124.394 41.079,124.326 z"
           style="fill:none;stroke:#000000;stroke-opacity:1;stroke-width:0.881304;stroke-linecap:butt;stroke-linejoin:miter;stroke-miterlimit:4;stroke-dasharray:none"
           id="path22" /></g><path
         d="m 495.824,333.815 c 0.114,-3.981 -3.027,-7.297 -7.012,-7.414 -3.98,-0.118 -7.304,3.015 -7.414,6.996 -0.113,3.976 3.024,7.297 7.008,7.414 3.91,0.113 7.199,-2.907 7.41,-6.813"
         style="fill:#000000;fill-opacity:1;fill-rule:nonzero;stroke:none"
         id="path24" /><g
         id="g26"
         transform="matrix(1,0.371332,0.371332,-1,0,595.27557)"><path
           d="M 239.359,280.557 343.253,389.058"
           style="fill:#008080;fill-opacity:1;fill-rule:nonzero;stroke:#000000;stroke-opacity:1;stroke-width:1.062941;stroke-linecap:butt;stroke-linejoin:miter;stroke-miterlimit:4;stroke-dasharray:none"
           id="path28" /></g><g
         id="g30"
         transform="matrix(1,-0.484947,-0.484947,-1,0,595.27557)"><path
           d="m 357.467,20.303 2.042,-2.04 -7.143,2.042 7.142,2.04 -2.041,-2.042 z"
           style="fill:#000000;fill-opacity:1;fill-rule:evenodd;stroke:#000000;stroke-opacity:1;stroke-width:0.510111;stroke-linecap:butt;stroke-linejoin:miter;stroke-miterlimit:4;stroke-dasharray:none"
           id="path32" /></g><g
         id="g34"
         transform="matrix(1,0,0,-1,0,595.27557)"><path
           d="m 461.027,248.156 c 2.703,-6.082 7.391,-11.07 13.297,-14.14"
           style="fill:none;stroke:#000000;stroke-opacity:1;stroke-width:1.417323;stroke-linecap:butt;stroke-linejoin:miter;stroke-miterlimit:4;stroke-dasharray:none"
           id="path36" /></g></g><text
       style="font-size:12px"
       y="-357.96533"
       x="477.11752"
       id="text72"
       transform="scale(1,-1)"><tspan
         style="font-size:32px;font-variant:normal;font-weight:normal;writing-mode:lr-tb;fill:#000000;fill-opacity:1;fill-rule:nonzero;stroke:none;font-family:Latin Modern Math;-inkscape-font-specification:LModernMath-Regular"
         x="477.11752"
         y="-357.96533"
         id="tspan74">π</tspan><tspan
         style="font-size:32px;font-variant:normal;font-weight:normal;writing-mode:lr-tb;fill:#000000;fill-opacity:1;fill-rule:nonzero;stroke:none;font-family:Latin Modern Math;-inkscape-font-specification:LModernMath-Regular"
         x="565.65991"
         y="-357.02338"
         id="tspan76" /></text>
<path
       inkscape:connector-curvature="0"
       d="m 496.31661,355.54052 c -0.031,-0.082 -0.086,-0.133 -0.156,-0.156 -0.074,-0.02 -0.141,-0.031 -0.203,-0.031 l -0.125,0 10.234,24.093 c 0.07,0.133 0.18,0.204 0.328,0.204 l 0.156,0 -10.234,-24.11 z"
       style="fill:none;stroke:#000000;stroke-width:1.12;stroke-linecap:butt;stroke-linejoin:miter;stroke-miterlimit:4;stroke-opacity:1;stroke-dasharray:none"
       id="path3959" /><path
       inkscape:connector-curvature="0"
       d="m 515.42361,378.82952 c 0.77,0 1.524,-0.117 2.266,-0.343 0.75,-0.219 1.41,-0.571 1.984,-1.047 0.57,-0.469 1.035,-1.075 1.391,-1.813 0.363,-0.73 0.547,-1.617 0.547,-2.656 0,-0.856 -0.141,-1.652 -0.422,-2.391 -0.274,-0.73 -0.637,-1.433 -1.094,-2.109 -0.461,-0.668 -0.992,-1.324 -1.594,-1.969 -0.594,-0.648 -1.226,-1.305 -1.89,-1.969 l -7.907,-8.078 c 0.227,0.02 0.489,0.035 0.782,0.047 0.289,0.02 0.617,0.031 0.984,0.031 l 11.578,0 c 0.113,0 0.172,-0.058 0.172,-0.171 l 0,-0.188 -14.016,0 0,0.125 c 0,0.063 0.016,0.113 0.047,0.156 0.031,0.051 0.055,0.086 0.078,0.11 l 8.063,8.187 c 0.656,0.664 1.273,1.317 1.859,1.953 0.594,0.645 1.11,1.297 1.547,1.953 0.438,0.664 0.781,1.348 1.031,2.047 0.258,0.707 0.391,1.461 0.391,2.266 0,0.969 -0.168,1.801 -0.5,2.5 -0.324,0.707 -0.762,1.285 -1.313,1.734 -0.54196,0.446 -1.16396,0.774 -1.85896,0.985 -0.687,0.218 -1.398,0.328 -2.125,0.328 -0.824,0 -1.59,-0.133 -2.297,-0.391 -0.699,-0.262 -1.312,-0.625 -1.844,-1.094 -0.531,-0.461 -0.976,-1.011 -1.328,-1.656 -0.343,-0.637 -0.578,-1.34 -0.703,-2.109 -0.031,-0.18 -0.117,-0.266 -0.25,-0.266 l -0.156,0 c 0.113,0.895 0.352,1.703 0.719,2.422 0.363,0.727 0.832,1.344 1.406,1.844 0.582,0.5 1.25,0.883 2,1.156 0.75,0.27 1.566,0.406 2.453,0.406 z"
       style="fill:none;stroke:#000000;stroke-width:1.12;stroke-linecap:butt;stroke-linejoin:miter;stroke-miterlimit:4;stroke-opacity:1;stroke-dasharray:none"
       id="path3961" /><text
       id="text3971"
       y="-356.72791"
       x="537.50696"
       style="font-size:32px;font-style:normal;font-variant:normal;font-weight:normal;font-stretch:normal;text-indent:0;text-align:start;text-decoration:none;line-height:normal;letter-spacing:normal;word-spacing:normal;text-transform:none;direction:ltr;block-progression:tb;writing-mode:lr-tb;text-anchor:start;baseline-shift:baseline;color:#000000;fill:#000000;fill-opacity:1;fill-rule:nonzero;stroke:none;stroke-width:1.25;marker:none;visibility:visible;display:inline;overflow:visible;enable-background:accumulate;font-family:Latin Modern Math;-inkscape-font-specification:LModernMath-Regular"
       xml:space="preserve"
       transform="scale(1,-1)"><tspan
         y="-356.72791"
         x="537.50696"
         id="tspan3973"
         sodipodi:role="line">θ</tspan></text>
<text
       xml:space="preserve"
       style="font-size:32px;font-style:normal;font-variant:normal;font-weight:normal;font-stretch:normal;text-indent:0;text-align:start;text-decoration:none;line-height:normal;letter-spacing:normal;word-spacing:normal;text-transform:none;direction:ltr;block-progression:tb;writing-mode:lr-tb;text-anchor:start;baseline-shift:baseline;color:#000000;fill:#000000;fill-opacity:1;fill-rule:nonzero;stroke:#000000;stroke-width:1.12;stroke-miterlimit:4;stroke-opacity:1;stroke-dasharray:none;marker:none;visibility:visible;display:inline;overflow:visible;enable-background:accumulate;font-family:Lato Hairline;-inkscape-font-specification:Lato-Hairline"
       x="525.34973"
       y="-357.10431"
       id="text3967"
       transform="scale(1,-1)"><tspan
         sodipodi:role="line"
         id="tspan3969"
         x="525.34973"
         y="-357.10431"
         style="stroke-width:1.12">-</tspan></text>
</g></svg>